<svg width="933" height="216" viewBox="0 0 933 216" fill="none" xmlns="http://www.w3.org/2000/svg">
<path d="M111.312 135.12C106.832 135.12 102.792 134.627 99.1922 133.64C95.6189 132.68 92.5655 131.213 90.0322 129.24C87.4989 127.24 85.5522 124.693 84.1922 121.6C82.8589 118.507 82.1922 114.84 82.1922 110.6C82.1922 109.427 82.2589 108.293 82.3922 107.2C82.5522 106.107 82.7789 105.067 83.0722 104.08C83.3922 103.093 83.7655 102.173 84.1922 101.32C85.2855 99.1867 86.8055 97.5067 88.7522 96.28C90.7255 95.0267 93.0855 94.4 95.8322 94.4C98.5522 94.4 100.579 94.8 101.912 95.6C103.272 96.4 104.179 97.3867 104.632 98.56C105.112 99.7333 105.379 100.867 105.432 101.96C105.486 102.653 105.526 103.32 105.552 103.96C105.606 104.573 105.659 105.173 105.712 105.76C105.766 106.32 105.819 106.867 105.872 107.4C105.952 107.907 106.032 108.4 106.112 108.88C106.432 110.64 106.832 112.04 107.312 113.08C107.819 114.12 108.446 114.88 109.192 115.36C109.966 115.813 110.886 116.04 111.952 116.04C112.646 116.04 113.326 115.867 113.992 115.52C114.686 115.173 115.312 114.56 115.872 113.68C116.459 112.8 116.939 111.573 117.312 110C117.499 109.253 117.632 108.533 117.712 107.84C117.819 107.12 117.899 106.427 117.952 105.76C118.032 105.067 118.139 104.387 118.272 103.72C118.406 103.053 118.592 102.387 118.832 101.72C119.526 99.9067 120.672 98.4133 122.272 97.24C123.899 96.0667 126.206 95.48 129.192 95.48C131.832 95.48 133.859 96.1467 135.272 97.48C136.712 98.7867 137.752 100.533 138.392 102.72C138.579 103.387 138.739 104.093 138.872 104.84C139.006 105.587 139.099 106.373 139.152 107.2C139.232 108 139.286 108.827 139.312 109.68C139.366 110.533 139.392 111.4 139.392 112.28C139.392 117.827 138.179 122.28 135.752 125.64C133.326 128.973 129.992 131.387 125.752 132.88C121.539 134.373 116.726 135.12 111.312 135.12ZM151.475 132.88C148.968 132.88 146.875 132.48 145.195 131.68C143.515 130.853 142.248 129.507 141.395 127.64C141.155 127.107 140.955 126.52 140.795 125.88C140.661 125.24 140.555 124.547 140.475 123.8C140.395 123.053 140.355 122.267 140.355 121.44C140.355 115.813 141.541 111.013 143.915 107.04C146.288 103.04 149.555 99.9867 153.715 97.88C157.901 95.7467 162.661 94.68 167.995 94.68C173.408 94.68 178.261 95.72 182.555 97.8C186.875 99.88 190.288 102.867 192.795 106.76C195.301 110.627 196.555 115.24 196.555 120.6C196.555 121.4 196.501 122.173 196.395 122.92C196.288 123.64 196.128 124.333 195.915 125C195.728 125.667 195.488 126.307 195.195 126.92C194.288 128.787 192.968 130.253 191.235 131.32C189.501 132.36 187.488 132.88 185.195 132.88C182.368 132.88 180.168 132.533 178.595 131.84C177.048 131.12 175.928 130.107 175.235 128.8C174.541 127.467 174.048 125.893 173.755 124.08C173.568 122.907 173.381 121.84 173.195 120.88C173.035 119.893 172.861 119.013 172.675 118.24C172.488 117.467 172.301 116.787 172.115 116.2C171.955 115.587 171.781 115.053 171.595 114.6C171.168 113.613 170.701 112.947 170.195 112.6C169.715 112.227 169.141 112.04 168.475 112.04C167.968 112.04 167.488 112.227 167.035 112.6C166.581 112.947 166.141 113.587 165.715 114.52C165.501 115 165.288 115.573 165.075 116.24C164.861 116.88 164.648 117.64 164.435 118.52C164.248 119.373 164.061 120.347 163.875 121.44C163.688 122.507 163.488 123.707 163.275 125.04C162.981 127.093 162.261 128.693 161.115 129.84C159.968 130.96 158.555 131.747 156.875 132.2C155.221 132.653 153.421 132.88 151.475 132.88ZM219.616 134.52C215.483 134.52 211.829 133.973 208.656 132.88C205.483 131.787 203.003 130 201.216 127.52C199.456 125.04 198.576 121.733 198.576 117.6C198.576 113.76 199.203 110.56 200.456 108C201.736 105.44 203.643 103.533 206.176 102.28C208.736 101 211.923 100.36 215.736 100.36C217.336 100.36 218.656 100.547 219.696 100.92C220.763 101.267 221.616 101.587 222.256 101.88C222.549 102.013 222.803 102.133 223.016 102.24C223.256 102.32 223.443 102.36 223.576 102.36C224.003 102.36 224.216 102.093 224.216 101.56C224.216 101.32 224.176 100.88 224.096 100.24C224.043 99.5733 223.963 98.8 223.856 97.92C223.749 97.04 223.629 96.1333 223.496 95.2C223.389 94.24 223.296 93.3333 223.216 92.48C223.163 91.6 223.136 90.8667 223.136 90.28C223.136 83.6933 226.629 80.4 233.616 80.4C235.989 80.4 238.203 80.7867 240.256 81.56C242.309 82.3067 243.989 83.5333 245.296 85.24C245.829 85.96 246.296 86.7333 246.696 87.56C247.123 88.3867 247.483 89.2667 247.776 90.2C248.069 91.1067 248.309 92.08 248.496 93.12C248.683 94.16 248.816 95.2533 248.896 96.4C248.976 97.5467 249.016 98.7467 249.016 100C249.016 107.973 248.109 114.507 246.296 119.6C244.509 124.693 241.469 128.453 237.176 130.88C232.909 133.307 227.056 134.52 219.616 134.52ZM220.296 122.28C221.416 122.28 222.389 122.067 223.216 121.64C224.069 121.213 224.723 120.64 225.176 119.92C225.656 119.2 225.896 118.427 225.896 117.6C225.896 116.747 225.736 116.027 225.416 115.44C225.123 114.853 224.709 114.4 224.176 114.08C223.669 113.76 223.069 113.6 222.376 113.6C221.416 113.6 220.496 113.853 219.616 114.36C218.736 114.867 218.003 115.547 217.416 116.4C216.856 117.227 216.576 118.12 216.576 119.08C216.576 119.747 216.736 120.32 217.056 120.8C217.376 121.28 217.816 121.653 218.376 121.92C218.963 122.16 219.603 122.28 220.296 122.28ZM266.587 133.88C264.934 133.88 263.467 133.693 262.187 133.32C260.934 132.947 259.827 132.427 258.867 131.76C257.934 131.067 257.094 130.253 256.347 129.32C255.574 128.333 254.894 127.24 254.307 126.04C253.721 124.813 253.227 123.52 252.827 122.16C252.454 120.773 252.161 119.333 251.947 117.84C251.761 116.347 251.667 114.84 251.667 113.32C251.667 108.787 252.747 104.92 254.907 101.72C257.067 98.4933 260.027 96.0267 263.787 94.32C267.574 92.5867 271.881 91.72 276.707 91.72C279.187 91.72 281.627 91.9333 284.027 92.36C286.454 92.7867 288.641 93.4533 290.587 94.36C292.534 95.2667 294.094 96.44 295.267 97.88C296.441 99.2933 297.027 101 297.027 103C297.027 104.973 296.627 106.507 295.827 107.6C295.054 108.693 294.041 109.453 292.787 109.88C291.561 110.28 290.281 110.48 288.947 110.48C287.107 110.48 285.521 110.307 284.187 109.96C282.854 109.613 281.414 109.44 279.867 109.44C278.721 109.44 277.721 109.747 276.867 110.36C276.014 110.947 275.587 112.053 275.587 113.68C275.587 114.373 275.614 115.067 275.667 115.76C275.747 116.427 275.841 117.093 275.947 117.76C276.054 118.4 276.161 119.053 276.267 119.72C276.374 120.387 276.454 121.04 276.507 121.68C276.587 122.32 276.627 122.973 276.627 123.64C276.627 127.027 275.827 129.587 274.227 131.32C272.654 133.027 270.107 133.88 266.587 133.88ZM320.976 135.72C316.229 135.72 312.016 134.973 308.336 133.48C304.683 132.013 301.816 129.773 299.736 126.76C297.683 123.747 296.656 119.96 296.656 115.4C296.656 111.64 297.309 108.333 298.616 105.48C299.949 102.6 301.776 100.187 304.096 98.24C306.443 96.2667 309.136 94.7867 312.176 93.8C315.243 92.7867 318.509 92.28 321.976 92.28C324.323 92.28 326.669 92.4667 329.016 92.84C331.363 93.1867 333.509 93.8 335.456 94.68C337.403 95.5333 338.963 96.7067 340.136 98.2C341.309 99.6933 341.896 101.56 341.896 103.8C341.896 105.293 341.683 106.6 341.256 107.72C340.856 108.813 340.283 109.76 339.536 110.56C338.789 111.36 337.909 112.053 336.896 112.64C335.909 113.227 334.829 113.76 333.656 114.24C332.483 114.72 330.989 115.173 329.176 115.6C327.389 116.027 325.563 116.373 323.696 116.64C321.856 116.907 320.256 117.04 318.896 117.04C318.069 117.04 317.483 117.133 317.136 117.32C316.789 117.48 316.616 117.787 316.616 118.24C316.616 118.507 316.669 118.747 316.776 118.96C316.909 119.173 317.096 119.347 317.336 119.48C317.629 119.667 318.003 119.8 318.456 119.88C318.936 119.933 319.469 119.96 320.056 119.96C321.416 119.96 322.963 119.707 324.696 119.2C326.429 118.693 328.296 118.187 330.296 117.68C332.323 117.173 334.456 116.92 336.696 116.92C339.096 116.92 341.016 117.36 342.456 118.24C343.923 119.12 344.656 120.867 344.656 123.48C344.656 125.667 343.989 127.547 342.656 129.12C341.323 130.667 339.523 131.92 337.256 132.88C335.016 133.867 332.483 134.587 329.656 135.04C326.829 135.493 323.936 135.72 320.976 135.72ZM319.336 108.88C319.949 108.88 320.656 108.76 321.456 108.52C322.283 108.253 323.003 107.88 323.616 107.4C324.229 106.893 324.536 106.293 324.536 105.6C324.536 104.693 324.176 104.147 323.456 103.96C322.736 103.747 321.989 103.64 321.216 103.64C320.683 103.64 320.136 103.733 319.576 103.92C319.043 104.08 318.549 104.32 318.096 104.64C317.643 104.933 317.269 105.28 316.976 105.68C316.709 106.08 316.576 106.507 316.576 106.96C316.576 107.493 316.696 107.907 316.936 108.2C317.203 108.467 317.549 108.653 317.976 108.76C318.403 108.84 318.856 108.88 319.336 108.88ZM365.727 133.72C363.327 133.72 361.18 133.64 359.287 133.48C357.42 133.347 355.74 133.133 354.247 132.84C352.78 132.547 351.433 132.173 350.207 131.72C348.34 131.027 346.793 130.187 345.567 129.2C344.367 128.213 343.767 126.72 343.767 124.72C343.767 122.533 344.38 120.787 345.607 119.48C346.833 118.147 348.647 117.48 351.047 117.48C352.273 117.48 353.46 117.613 354.607 117.88C355.753 118.12 356.98 118.373 358.287 118.64C359.593 118.88 361.073 119 362.727 119C363.633 119 364.393 118.973 365.007 118.92C365.62 118.867 366.087 118.747 366.407 118.56C366.727 118.373 366.887 118.107 366.887 117.76C366.887 117.36 366.727 117.053 366.407 116.84C366.113 116.6 365.487 116.373 364.527 116.16C363.567 115.947 362.113 115.693 360.167 115.4C357.153 114.92 354.553 114.173 352.367 113.16C350.18 112.147 348.487 110.813 347.287 109.16C346.113 107.507 345.527 105.48 345.527 103.08C345.527 100.84 346.18 98.9467 347.487 97.4C348.793 95.8533 350.567 94.6133 352.807 93.68C355.047 92.72 357.553 92.0267 360.327 91.6C363.127 91.1467 366.007 90.92 368.967 90.92C371.047 90.92 373.153 91.0533 375.287 91.32C377.42 91.56 379.38 91.96 381.167 92.52C382.98 93.08 384.433 93.8267 385.527 94.76C386.62 95.6667 387.167 96.8 387.167 98.16C387.167 99.9733 386.74 101.427 385.887 102.52C385.06 103.613 384.007 104.4 382.727 104.88C381.473 105.333 380.193 105.56 378.887 105.56C377.26 105.56 375.74 105.413 374.327 105.12C372.94 104.827 371.9 104.68 371.207 104.68C370.78 104.68 370.42 104.707 370.127 104.76C369.86 104.813 369.66 104.907 369.527 105.04C369.42 105.147 369.367 105.307 369.367 105.52C369.367 105.867 369.793 106.147 370.647 106.36C371.5 106.547 373.06 106.827 375.327 107.2C377.62 107.547 379.74 108.2 381.687 109.16C383.66 110.093 385.247 111.413 386.447 113.12C387.647 114.827 388.247 117 388.247 119.64C388.247 121.96 387.713 124 386.647 125.76C385.58 127.493 384.06 128.96 382.087 130.16C380.113 131.333 377.74 132.213 374.967 132.8C372.22 133.413 369.14 133.72 365.727 133.72ZM410.183 133.72C407.783 133.72 405.636 133.64 403.743 133.48C401.876 133.347 400.196 133.133 398.703 132.84C397.236 132.547 395.889 132.173 394.663 131.72C392.796 131.027 391.249 130.187 390.023 129.2C388.823 128.213 388.223 126.72 388.223 124.72C388.223 122.533 388.836 120.787 390.063 119.48C391.289 118.147 393.103 117.48 395.503 117.48C396.729 117.48 397.916 117.613 399.063 117.88C400.209 118.12 401.436 118.373 402.743 118.64C404.049 118.88 405.529 119 407.183 119C408.089 119 408.849 118.973 409.463 118.92C410.076 118.867 410.543 118.747 410.863 118.56C411.183 118.373 411.343 118.107 411.343 117.76C411.343 117.36 411.183 117.053 410.863 116.84C410.569 116.6 409.943 116.373 408.983 116.16C408.023 115.947 406.569 115.693 404.623 115.4C401.609 114.92 399.009 114.173 396.823 113.16C394.636 112.147 392.943 110.813 391.743 109.16C390.569 107.507 389.983 105.48 389.983 103.08C389.983 100.84 390.636 98.9467 391.943 97.4C393.249 95.8533 395.023 94.6133 397.263 93.68C399.503 92.72 402.009 92.0267 404.783 91.6C407.583 91.1467 410.463 90.92 413.423 90.92C415.503 90.92 417.609 91.0533 419.743 91.32C421.876 91.56 423.836 91.96 425.623 92.52C427.436 93.08 428.889 93.8267 429.983 94.76C431.076 95.6667 431.623 96.8 431.623 98.16C431.623 99.9733 431.196 101.427 430.343 102.52C429.516 103.613 428.463 104.4 427.183 104.88C425.929 105.333 424.649 105.56 423.343 105.56C421.716 105.56 420.196 105.413 418.783 105.12C417.396 104.827 416.356 104.68 415.663 104.68C415.236 104.68 414.876 104.707 414.583 104.76C414.316 104.813 414.116 104.907 413.983 105.04C413.876 105.147 413.823 105.307 413.823 105.52C413.823 105.867 414.249 106.147 415.103 106.36C415.956 106.547 417.516 106.827 419.783 107.2C422.076 107.547 424.196 108.2 426.143 109.16C428.116 110.093 429.703 111.413 430.903 113.12C432.103 114.827 432.703 117 432.703 119.64C432.703 121.96 432.169 124 431.103 125.76C430.036 127.493 428.516 128.96 426.543 130.16C424.569 131.333 422.196 132.213 419.423 132.8C416.676 133.413 413.596 133.72 410.183 133.72ZM457.079 135.72C452.332 135.72 448.119 134.973 444.439 133.48C440.786 132.013 437.919 129.773 435.839 126.76C433.786 123.747 432.759 119.96 432.759 115.4C432.759 111.64 433.412 108.333 434.719 105.48C436.052 102.6 437.879 100.187 440.199 98.24C442.546 96.2667 445.239 94.7867 448.279 93.8C451.346 92.7867 454.612 92.28 458.079 92.28C460.426 92.28 462.772 92.4667 465.119 92.84C467.466 93.1867 469.612 93.8 471.559 94.68C473.506 95.5333 475.066 96.7067 476.239 98.2C477.412 99.6933 477.999 101.56 477.999 103.8C477.999 105.293 477.786 106.6 477.359 107.72C476.959 108.813 476.386 109.76 475.639 110.56C474.892 111.36 474.012 112.053 472.999 112.64C472.012 113.227 470.932 113.76 469.759 114.24C468.586 114.72 467.092 115.173 465.279 115.6C463.492 116.027 461.666 116.373 459.799 116.64C457.959 116.907 456.359 117.04 454.999 117.04C454.172 117.04 453.586 117.133 453.239 117.32C452.892 117.48 452.719 117.787 452.719 118.24C452.719 118.507 452.772 118.747 452.879 118.96C453.012 119.173 453.199 119.347 453.439 119.48C453.732 119.667 454.106 119.8 454.559 119.88C455.039 119.933 455.572 119.96 456.159 119.96C457.519 119.96 459.066 119.707 460.799 119.2C462.532 118.693 464.399 118.187 466.399 117.68C468.426 117.173 470.559 116.92 472.799 116.92C475.199 116.92 477.119 117.36 478.559 118.24C480.026 119.12 480.759 120.867 480.759 123.48C480.759 125.667 480.092 127.547 478.759 129.12C477.426 130.667 475.626 131.92 473.359 132.88C471.119 133.867 468.586 134.587 465.759 135.04C462.932 135.493 460.039 135.72 457.079 135.72ZM455.439 108.88C456.052 108.88 456.759 108.76 457.559 108.52C458.386 108.253 459.106 107.88 459.719 107.4C460.332 106.893 460.639 106.293 460.639 105.6C460.639 104.693 460.279 104.147 459.559 103.96C458.839 103.747 458.092 103.64 457.319 103.64C456.786 103.64 456.239 103.733 455.679 103.92C455.146 104.08 454.652 104.32 454.199 104.64C453.746 104.933 453.372 105.28 453.079 105.68C452.812 106.08 452.679 106.507 452.679 106.96C452.679 107.493 452.799 107.907 453.039 108.2C453.306 108.467 453.652 108.653 454.079 108.76C454.506 108.84 454.959 108.88 455.439 108.88ZM501.51 134.52C497.376 134.52 493.723 133.973 490.55 132.88C487.376 131.787 484.896 130 483.11 127.52C481.35 125.04 480.47 121.733 480.47 117.6C480.47 113.76 481.096 110.56 482.35 108C483.63 105.44 485.536 103.533 488.07 102.28C490.63 101 493.816 100.36 497.63 100.36C499.23 100.36 500.55 100.547 501.59 100.92C502.656 101.267 503.51 101.587 504.15 101.88C504.443 102.013 504.696 102.133 504.91 102.24C505.15 102.32 505.336 102.36 505.47 102.36C505.896 102.36 506.11 102.093 506.11 101.56C506.11 101.32 506.07 100.88 505.99 100.24C505.936 99.5733 505.856 98.8 505.75 97.92C505.643 97.04 505.523 96.1333 505.39 95.2C505.283 94.24 505.19 93.3333 505.11 92.48C505.056 91.6 505.03 90.8667 505.03 90.28C505.03 83.6933 508.523 80.4 515.51 80.4C517.883 80.4 520.096 80.7867 522.15 81.56C524.203 82.3067 525.883 83.5333 527.19 85.24C527.723 85.96 528.19 86.7333 528.59 87.56C529.016 88.3867 529.376 89.2667 529.67 90.2C529.963 91.1067 530.203 92.08 530.39 93.12C530.576 94.16 530.71 95.2533 530.79 96.4C530.87 97.5467 530.91 98.7467 530.91 100C530.91 107.973 530.003 114.507 528.19 119.6C526.403 124.693 523.363 128.453 519.07 130.88C514.803 133.307 508.95 134.52 501.51 134.52ZM502.19 122.28C503.31 122.28 504.283 122.067 505.11 121.64C505.963 121.213 506.616 120.64 507.07 119.92C507.55 119.2 507.79 118.427 507.79 117.6C507.79 116.747 507.63 116.027 507.31 115.44C507.016 114.853 506.603 114.4 506.07 114.08C505.563 113.76 504.963 113.6 504.27 113.6C503.31 113.6 502.39 113.853 501.51 114.36C500.63 114.867 499.896 115.547 499.31 116.4C498.75 117.227 498.47 118.12 498.47 119.08C498.47 119.747 498.63 120.32 498.95 120.8C499.27 121.28 499.71 121.653 500.27 121.92C500.856 122.16 501.496 122.28 502.19 122.28Z" fill="#87000C"></path>
<path d="M551.397 133.972C549.049 133.966 546.962 133.88 545.138 133.715C543.335 133.577 541.729 133.36 540.319 133.063C538.936 132.766 537.684 132.389 536.563 131.933C534.859 131.235 533.494 130.392 532.467 129.402C531.467 128.413 531.143 126.919 531.496 124.92C531.881 122.734 532.789 120.99 534.22 119.687C535.655 118.357 537.547 117.695 539.895 117.701C541.095 117.704 542.233 117.841 543.308 118.11C544.388 118.353 545.543 118.609 546.775 118.879C548.011 119.122 549.438 119.246 551.056 119.25C551.943 119.253 552.691 119.228 553.301 119.176C553.911 119.124 554.388 119.006 554.734 118.82C555.08 118.634 555.284 118.368 555.345 118.021C555.415 117.621 555.313 117.315 555.037 117.1C554.793 116.86 554.22 116.632 553.318 116.416C552.416 116.2 551.039 115.943 549.186 115.645C546.322 115.158 543.909 114.405 541.948 113.386C539.987 112.368 538.565 111.031 537.683 109.375C536.826 107.72 536.609 105.692 537.032 103.293C537.427 101.054 538.4 99.1633 539.951 97.6206C541.502 96.0779 543.456 94.843 545.812 93.9157C548.173 92.9618 550.748 92.2751 553.537 91.8556C556.357 91.4096 559.215 91.1903 562.111 91.1978C564.146 91.2031 566.184 91.3417 568.224 91.6137C570.269 91.859 572.117 92.2638 573.766 92.8281C575.442 93.3925 576.732 94.1425 577.638 95.0782C578.548 95.9873 578.883 97.1215 578.643 98.4809C578.324 100.294 577.65 101.745 576.622 102.836C575.621 103.927 574.451 104.71 573.114 105.187C571.808 105.637 570.516 105.86 569.237 105.857C567.645 105.853 566.184 105.702 564.853 105.405C563.548 105.109 562.556 104.959 561.877 104.958C561.46 104.957 561.103 104.982 560.807 105.035C560.536 105.088 560.324 105.18 560.17 105.313C560.047 105.42 559.967 105.579 559.929 105.793C559.868 106.139 560.236 106.42 561.033 106.636C561.835 106.824 563.312 107.108 565.465 107.487C567.647 107.839 569.607 108.498 571.342 109.462C573.109 110.4 574.428 111.724 575.302 113.433C576.175 115.142 576.379 117.316 575.914 119.955C575.505 122.274 574.624 124.311 573.27 126.068C571.921 127.798 570.175 129.26 568.032 130.455C565.895 131.622 563.417 132.496 560.6 133.075C557.805 133.682 554.737 133.98 551.397 133.972ZM600.436 134.859C597.044 134.85 593.822 134.468 590.771 133.714C587.74 132.986 585.096 131.846 582.838 130.293C580.61 128.714 578.971 126.683 577.921 124.2C576.897 121.717 576.695 118.717 577.315 115.198C577.997 111.333 579.295 107.896 581.209 104.888C583.149 101.879 585.529 99.3388 588.348 97.2661C591.198 95.1667 594.348 93.5881 597.798 92.5304C601.252 91.4459 604.858 90.9086 608.615 90.9183C612.346 90.928 615.708 91.4034 618.701 92.3445C621.72 93.2857 624.239 94.6923 626.258 96.5643C628.278 98.4362 629.68 100.773 630.465 103.575C631.281 106.351 631.36 109.605 630.702 113.336C630.152 116.455 628.9 119.332 626.948 121.967C625 124.575 622.589 126.849 619.715 128.788C616.872 130.701 613.777 132.187 610.432 133.245C607.108 134.329 603.776 134.867 600.436 134.859ZM602.696 115.824C603.636 115.826 604.468 115.695 605.194 115.43C605.95 115.139 606.592 114.754 607.12 114.275C607.679 113.77 608.13 113.211 608.473 112.599C608.816 111.986 609.046 111.347 609.164 110.68C609.291 109.961 609.244 109.334 609.025 108.8C608.806 108.266 608.466 107.825 608.006 107.477C607.545 107.129 607.002 106.875 606.378 106.713C605.785 106.525 605.149 106.43 604.471 106.428C603.505 106.426 602.598 106.61 601.75 106.981C600.901 107.352 600.181 107.884 599.589 108.576C599.023 109.267 598.656 110.093 598.486 111.053C598.327 111.959 598.405 112.773 598.722 113.494C599.038 114.214 599.537 114.789 600.219 115.217C600.931 115.619 601.757 115.821 602.696 115.824ZM654.394 135.839C650.976 135.83 647.78 135.448 644.807 134.694C641.859 133.939 639.32 132.719 637.19 131.034C635.09 129.322 633.593 127.078 632.699 124.302C631.805 121.526 631.717 118.099 632.436 114.021C633.165 109.889 634.371 106.306 636.055 103.27C637.744 100.208 639.889 97.6663 642.49 95.6463C645.096 93.5996 648.129 92.0875 651.591 91.1097C655.057 90.1053 658.917 89.6087 663.17 89.6197C666.64 89.6287 669.375 90.0358 671.374 90.841C673.403 91.6196 674.798 92.6633 675.559 93.9719C676.352 95.254 676.611 96.6681 676.339 98.2141C676.122 99.4403 675.612 100.559 674.807 101.57C674.033 102.555 673.112 103.339 672.043 103.923C670.979 104.48 669.925 104.758 668.881 104.755C668.02 104.753 667.251 104.671 666.575 104.509C665.925 104.347 665.209 104.185 664.429 104.023C663.648 103.861 662.657 103.779 661.457 103.776C660.57 103.773 659.735 103.918 658.953 104.209C658.171 104.501 657.456 104.925 656.81 105.484C656.163 106.042 655.613 106.721 655.158 107.52C654.735 108.292 654.439 109.158 654.27 110.117C653.983 111.743 653.974 113.05 654.244 114.037C654.518 114.998 655.062 115.693 655.874 116.122C656.712 116.551 657.809 116.767 659.166 116.77C660.001 116.772 660.913 116.708 661.902 116.577C662.917 116.447 663.936 116.289 664.961 116.105C665.985 115.921 666.927 115.764 667.785 115.633C668.644 115.501 669.334 115.437 669.856 115.438C671.682 115.443 673.042 115.873 673.935 116.729C674.855 117.584 675.426 118.639 675.649 119.893C675.871 121.147 675.877 122.374 675.665 123.573C675.261 125.866 674.399 127.797 673.078 129.367C671.783 130.937 670.163 132.199 668.22 133.154C666.276 134.109 664.119 134.797 661.748 135.218C659.376 135.638 656.925 135.845 654.394 135.839ZM686.571 134.402C683.648 134.394 681.481 133.882 680.067 132.865C678.68 131.848 677.856 130.379 677.594 128.458C677.333 126.538 677.439 124.231 677.914 121.539C678.055 120.739 678.207 119.953 678.369 119.18C678.557 118.407 678.741 117.661 678.92 116.941C679.126 116.222 679.339 115.529 679.561 114.863C679.814 114.17 680.062 113.504 680.305 112.865C680.574 112.226 680.852 111.613 681.138 111.027C681.429 110.414 681.738 109.842 682.067 109.309C683.73 106.54 685.841 104.412 688.401 102.926C690.96 101.439 694.053 100.7 697.68 100.71C701.046 100.718 703.311 101.937 704.475 104.367C705.67 106.77 705.91 109.998 705.196 114.049C705.008 115.116 704.785 116.155 704.528 117.168C704.298 118.181 704.035 119.153 703.74 120.086C703.449 120.992 703.122 121.884 702.759 122.763C702.425 123.616 702.047 124.428 701.624 125.201C701.205 125.946 700.765 126.665 700.304 127.357C699.843 128.049 699.338 128.688 698.791 129.273C697.3 130.923 695.537 132.185 693.503 133.06C691.491 133.961 689.18 134.409 686.571 134.402ZM696.797 97.9471C693.013 97.9373 690.371 97.3038 688.87 96.0465C687.369 94.7892 686.764 93.3343 687.055 91.6817C687.436 89.5226 688.517 87.6853 690.298 86.1699C692.084 84.6278 694.183 83.4598 696.594 82.666C699.036 81.8457 701.431 81.4385 703.779 81.4446C705.501 81.4491 707.043 81.7331 708.406 82.2966C709.799 82.8336 710.849 83.6897 711.556 84.8649C712.267 86.0134 712.458 87.5207 712.129 89.3865C711.753 91.519 710.815 93.2099 709.316 94.4594C707.816 95.7089 705.96 96.6108 703.748 97.1651C701.567 97.6928 699.25 97.9535 696.797 97.9471ZM725.736 138.544C723.44 138.538 721.181 138.318 718.96 137.886C716.734 137.48 714.772 136.768 713.072 135.751C711.367 134.76 710.091 133.41 709.243 131.701C708.422 129.992 708.237 127.858 708.688 125.299C709.097 122.98 710.028 121.036 711.479 119.466C712.935 117.87 714.75 116.608 716.924 115.68C719.102 114.726 721.494 114.038 724.101 113.618C726.733 113.199 729.419 112.992 732.159 112.999C732.733 113.001 733.289 113.029 733.828 113.084C734.371 113.112 734.86 113.153 735.294 113.207C735.759 113.235 736.109 113.25 736.343 113.25C736.865 113.252 737.247 113.159 737.489 112.973C737.735 112.76 737.896 112.441 737.971 112.014C737.999 111.854 737.997 111.721 737.963 111.614C737.961 111.481 737.93 111.361 737.87 111.254C737.815 111.121 737.73 111.014 737.613 110.933C737.321 110.666 736.861 110.465 736.232 110.33C735.634 110.168 734.943 110.086 734.161 110.084C733.065 110.082 731.817 110.198 730.418 110.435C729.024 110.644 727.536 110.867 725.954 111.103C724.398 111.339 722.785 111.455 721.115 111.451C718.036 111.443 715.714 110.917 714.15 109.873C712.611 108.829 712.034 107.214 712.419 105.028C712.772 103.029 713.673 101.324 715.122 99.9147C716.598 98.5051 718.418 97.3631 720.582 96.4887C722.772 95.6144 725.129 94.9804 727.652 94.587C730.175 94.1935 732.663 93.9999 735.116 94.0063C740.335 94.0198 744.668 94.5377 748.116 95.56C751.595 96.5558 754.062 98.3355 755.515 100.899C757 103.437 757.331 107.038 756.508 111.702C756.362 112.529 756.209 113.248 756.049 113.861C755.889 114.474 755.727 115.02 755.564 115.5C755.402 115.98 755.259 116.419 755.136 116.819C755.018 117.192 754.924 117.578 754.853 117.978C754.712 118.778 754.843 119.592 755.245 120.419C755.678 121.221 756.178 122.089 756.744 123.023C757.341 123.932 757.817 124.933 758.172 126.027C758.553 127.122 758.622 128.362 758.377 129.748C758.016 131.8 757.108 133.318 755.656 134.301C754.199 135.311 752.596 135.813 750.848 135.809C749.595 135.805 748.643 135.51 747.989 134.921C747.357 134.359 746.845 133.785 746.453 133.197C746.056 132.636 745.583 132.355 745.035 132.353C744.618 132.352 744.096 132.498 743.471 132.789C742.866 133.108 742.172 133.493 741.387 133.944C740.428 134.502 739.219 135.138 737.761 135.855C736.299 136.598 734.568 137.233 732.57 137.761C730.597 138.29 728.319 138.55 725.736 138.544ZM729.395 126.233C729.943 126.234 730.502 126.169 731.074 126.037C731.671 125.905 732.239 125.72 732.777 125.481C733.32 125.216 733.768 124.897 734.12 124.525C734.499 124.152 734.731 123.726 734.816 123.247C734.905 122.74 734.83 122.353 734.59 122.086C734.354 121.792 734.027 121.578 733.607 121.443C733.186 121.309 732.755 121.241 732.311 121.24C731.58 121.238 730.807 121.329 729.992 121.514C729.181 121.672 728.464 121.963 727.84 122.388C727.243 122.814 726.877 123.413 726.74 124.186C726.651 124.692 726.737 125.092 726.999 125.386C727.26 125.68 727.601 125.895 728.021 126.029C728.467 126.164 728.925 126.231 729.395 126.233ZM779.483 135.203C776.013 135.194 773.19 134.693 771.016 133.701C768.841 132.708 767.203 131.264 766.102 129.368C765.001 127.472 764.311 125.163 764.034 122.442C763.911 121.215 763.838 119.855 763.814 118.362C763.821 116.842 763.863 115.268 763.941 113.642C764.045 112.015 764.153 110.442 764.264 108.922C764.406 107.376 764.549 105.976 764.691 104.723C764.86 103.47 765.015 102.444 765.156 101.644C765.856 97.6728 766.734 94.2482 767.79 91.3709C768.872 88.4936 770.344 86.284 772.209 84.7421C774.099 83.2002 776.584 82.4333 779.663 82.4413C783.394 82.451 785.776 83.5239 786.809 85.6599C787.847 87.7694 787.966 91.0898 787.167 95.6212C787.068 96.181 786.926 96.914 786.74 97.8202C786.559 98.6998 786.344 99.6993 786.094 100.819C785.875 101.911 785.632 103.071 785.363 104.297C785.126 105.496 784.875 106.696 784.611 107.895C784.378 109.068 784.155 110.187 783.941 111.253C783.727 112.32 783.547 113.266 783.401 114.092C783.213 115.158 783.118 116.145 783.114 117.052C783.116 117.932 783.214 118.705 783.41 119.372C783.636 120.013 783.951 120.52 784.355 120.895C784.79 121.243 785.333 121.417 785.986 121.419C786.743 121.421 787.553 121.263 788.419 120.945C789.289 120.601 790.182 120.27 791.1 119.952C792.022 119.608 792.927 119.437 793.814 119.439C795.04 119.443 795.936 119.912 796.503 120.846C797.069 121.781 797.213 123.035 796.936 124.608C796.635 126.314 795.845 127.832 794.566 129.162C793.314 130.492 791.799 131.608 790.021 132.51C788.248 133.385 786.422 134.047 784.541 134.496C782.683 134.971 780.996 135.207 779.483 135.203ZM818.043 134.663C815.695 134.657 813.609 134.571 811.784 134.406C809.981 134.268 808.375 134.051 806.965 133.754C805.582 133.457 804.33 133.08 803.21 132.624C801.505 131.926 800.14 131.083 799.114 130.093C798.114 129.104 797.79 127.61 798.142 125.611C798.528 123.425 799.436 121.681 800.866 120.378C802.301 119.048 804.193 118.386 806.542 118.392C807.742 118.395 808.879 118.532 809.954 118.801C811.034 119.044 812.19 119.3 813.421 119.57C814.658 119.813 816.085 119.937 817.702 119.941C818.589 119.944 819.338 119.919 819.947 119.867C820.557 119.815 821.035 119.697 821.381 119.511C821.727 119.325 821.93 119.059 821.991 118.712C822.062 118.312 821.959 118.006 821.684 117.792C821.439 117.551 820.866 117.323 819.964 117.107C819.062 116.891 817.685 116.634 815.832 116.336C812.968 115.849 810.556 115.096 808.595 114.077C806.634 113.059 805.212 111.722 804.329 110.066C803.472 108.411 803.255 106.383 803.678 103.984C804.073 101.745 805.046 99.8544 806.597 98.3117C808.148 96.769 810.102 95.534 812.459 94.6067C814.819 93.6528 817.394 92.9661 820.183 92.5467C823.003 92.1006 825.861 91.8814 828.757 91.8889C830.792 91.8942 832.83 92.0328 834.871 92.3047C836.916 92.55 838.763 92.9549 840.413 93.5191C842.088 94.0835 843.379 94.8335 844.284 95.7693C845.194 96.6783 845.529 97.8126 845.289 99.172C844.97 100.985 844.296 102.436 843.269 103.527C842.267 104.618 841.098 105.401 839.761 105.878C838.454 106.328 837.162 106.551 835.883 106.548C834.292 106.544 832.83 106.393 831.499 106.097C830.194 105.8 829.202 105.651 828.524 105.649C828.106 105.648 827.749 105.673 827.453 105.726C827.183 105.779 826.97 105.871 826.816 106.004C826.693 106.111 826.613 106.271 826.575 106.484C826.514 106.83 826.882 107.111 827.68 107.327C828.482 107.515 829.959 107.799 832.111 108.178C834.294 108.531 836.253 109.189 837.989 110.153C839.755 111.091 841.075 112.415 841.948 114.124C842.822 115.833 843.026 118.007 842.56 120.646C842.151 122.965 841.27 125.003 839.916 126.759C838.567 128.489 836.821 129.951 834.679 131.146C832.541 132.314 830.064 133.187 827.247 133.767C824.451 134.373 821.383 134.671 818.043 134.663Z" fill="#87000C"></path>
</svg>