<svg width="933" height="216" viewBox="0 0 933 216" fill="none" xmlns="http://www.w3.org/2000/svg">
<path d="M111.312 135.12C106.832 135.12 102.792 134.627 99.1917 133.64C95.6184 132.68 92.5651 131.213 90.0317 129.24C87.4984 127.24 85.5517 124.693 84.1917 121.6C82.8584 118.507 82.1917 114.84 82.1917 110.6C82.1917 109.427 82.2584 108.293 82.3917 107.2C82.5517 106.107 82.7784 105.067 83.0717 104.08C83.3917 103.093 83.7651 102.173 84.1917 101.32C85.2851 99.1867 86.8051 97.5067 88.7517 96.28C90.7251 95.0267 93.0851 94.4 95.8317 94.4C98.5517 94.4 100.578 94.8 101.912 95.6C103.272 96.4 104.178 97.3867 104.632 98.56C105.112 99.7333 105.378 100.867 105.432 101.96C105.485 102.653 105.525 103.32 105.552 103.96C105.605 104.573 105.658 105.173 105.712 105.76C105.765 106.32 105.818 106.867 105.872 107.4C105.952 107.907 106.032 108.4 106.112 108.88C106.432 110.64 106.832 112.04 107.312 113.08C107.818 114.12 108.445 114.88 109.192 115.36C109.965 115.813 110.885 116.04 111.952 116.04C112.645 116.04 113.325 115.867 113.992 115.52C114.685 115.173 115.312 114.56 115.872 113.68C116.458 112.8 116.938 111.573 117.312 110C117.498 109.253 117.632 108.533 117.712 107.84C117.818 107.12 117.898 106.427 117.952 105.76C118.032 105.067 118.138 104.387 118.272 103.72C118.405 103.053 118.592 102.387 118.832 101.72C119.525 99.9067 120.672 98.4133 122.272 97.24C123.898 96.0667 126.205 95.48 129.192 95.48C131.832 95.48 133.858 96.1467 135.272 97.48C136.712 98.7867 137.752 100.533 138.392 102.72C138.578 103.387 138.738 104.093 138.872 104.84C139.005 105.587 139.098 106.373 139.152 107.2C139.232 108 139.285 108.827 139.312 109.68C139.365 110.533 139.392 111.4 139.392 112.28C139.392 117.827 138.178 122.28 135.752 125.64C133.325 128.973 129.992 131.387 125.752 132.88C121.538 134.373 116.725 135.12 111.312 135.12ZM151.474 132.88C148.968 132.88 146.874 132.48 145.194 131.68C143.514 130.853 142.248 129.507 141.394 127.64C141.154 127.107 140.954 126.52 140.794 125.88C140.661 125.24 140.554 124.547 140.474 123.8C140.394 123.053 140.354 122.267 140.354 121.44C140.354 115.813 141.541 111.013 143.914 107.04C146.288 103.04 149.554 99.9867 153.714 97.88C157.901 95.7467 162.661 94.68 167.994 94.68C173.408 94.68 178.261 95.72 182.554 97.8C186.874 99.88 190.288 102.867 192.794 106.76C195.301 110.627 196.554 115.24 196.554 120.6C196.554 121.4 196.501 122.173 196.394 122.92C196.288 123.64 196.128 124.333 195.914 125C195.728 125.667 195.488 126.307 195.194 126.92C194.288 128.787 192.968 130.253 191.234 131.32C189.501 132.36 187.488 132.88 185.194 132.88C182.368 132.88 180.168 132.533 178.594 131.84C177.048 131.12 175.928 130.107 175.234 128.8C174.541 127.467 174.048 125.893 173.754 124.08C173.568 122.907 173.381 121.84 173.194 120.88C173.034 119.893 172.861 119.013 172.674 118.24C172.488 117.467 172.301 116.787 172.114 116.2C171.954 115.587 171.781 115.053 171.594 114.6C171.168 113.613 170.701 112.947 170.194 112.6C169.714 112.227 169.141 112.04 168.474 112.04C167.968 112.04 167.488 112.227 167.034 112.6C166.581 112.947 166.141 113.587 165.714 114.52C165.501 115 165.288 115.573 165.074 116.24C164.861 116.88 164.648 117.64 164.434 118.52C164.248 119.373 164.061 120.347 163.874 121.44C163.688 122.507 163.488 123.707 163.274 125.04C162.981 127.093 162.261 128.693 161.114 129.84C159.968 130.96 158.554 131.747 156.874 132.2C155.221 132.653 153.421 132.88 151.474 132.88ZM219.615 134.52C215.482 134.52 211.829 133.973 208.655 132.88C205.482 131.787 203.002 130 201.215 127.52C199.455 125.04 198.575 121.733 198.575 117.6C198.575 113.76 199.202 110.56 200.455 108C201.735 105.44 203.642 103.533 206.175 102.28C208.735 101 211.922 100.36 215.735 100.36C217.335 100.36 218.655 100.547 219.695 100.92C220.762 101.267 221.615 101.587 222.255 101.88C222.549 102.013 222.802 102.133 223.015 102.24C223.255 102.32 223.442 102.36 223.575 102.36C224.002 102.36 224.215 102.093 224.215 101.56C224.215 101.32 224.175 100.88 224.095 100.24C224.042 99.5733 223.962 98.8 223.855 97.92C223.749 97.04 223.629 96.1333 223.495 95.2C223.389 94.24 223.295 93.3333 223.215 92.48C223.162 91.6 223.135 90.8667 223.135 90.28C223.135 83.6933 226.629 80.4 233.615 80.4C235.989 80.4 238.202 80.7867 240.255 81.56C242.309 82.3067 243.989 83.5333 245.295 85.24C245.829 85.96 246.295 86.7333 246.695 87.56C247.122 88.3867 247.482 89.2667 247.775 90.2C248.069 91.1067 248.309 92.08 248.495 93.12C248.682 94.16 248.815 95.2533 248.895 96.4C248.975 97.5467 249.015 98.7467 249.015 100C249.015 107.973 248.109 114.507 246.295 119.6C244.509 124.693 241.469 128.453 237.175 130.88C232.909 133.307 227.055 134.52 219.615 134.52ZM220.295 122.28C221.415 122.28 222.389 122.067 223.215 121.64C224.069 121.213 224.722 120.64 225.175 119.92C225.655 119.2 225.895 118.427 225.895 117.6C225.895 116.747 225.735 116.027 225.415 115.44C225.122 114.853 224.709 114.4 224.175 114.08C223.669 113.76 223.069 113.6 222.375 113.6C221.415 113.6 220.495 113.853 219.615 114.36C218.735 114.867 218.002 115.547 217.415 116.4C216.855 117.227 216.575 118.12 216.575 119.08C216.575 119.747 216.735 120.32 217.055 120.8C217.375 121.28 217.815 121.653 218.375 121.92C218.962 122.16 219.602 122.28 220.295 122.28ZM266.587 133.88C264.933 133.88 263.467 133.693 262.187 133.32C260.933 132.947 259.827 132.427 258.867 131.76C257.933 131.067 257.093 130.253 256.347 129.32C255.573 128.333 254.893 127.24 254.307 126.04C253.72 124.813 253.227 123.52 252.827 122.16C252.453 120.773 252.16 119.333 251.947 117.84C251.76 116.347 251.667 114.84 251.667 113.32C251.667 108.787 252.747 104.92 254.907 101.72C257.067 98.4933 260.027 96.0267 263.787 94.32C267.573 92.5867 271.88 91.72 276.707 91.72C279.187 91.72 281.627 91.9333 284.027 92.36C286.453 92.7867 288.64 93.4533 290.587 94.36C292.533 95.2667 294.093 96.44 295.267 97.88C296.44 99.2933 297.027 101 297.027 103C297.027 104.973 296.627 106.507 295.827 107.6C295.053 108.693 294.04 109.453 292.787 109.88C291.56 110.28 290.28 110.48 288.947 110.48C287.107 110.48 285.52 110.307 284.187 109.96C282.853 109.613 281.413 109.44 279.867 109.44C278.72 109.44 277.72 109.747 276.867 110.36C276.013 110.947 275.587 112.053 275.587 113.68C275.587 114.373 275.613 115.067 275.667 115.76C275.747 116.427 275.84 117.093 275.947 117.76C276.053 118.4 276.16 119.053 276.267 119.72C276.373 120.387 276.453 121.04 276.507 121.68C276.587 122.32 276.627 122.973 276.627 123.64C276.627 127.027 275.827 129.587 274.227 131.32C272.653 133.027 270.107 133.88 266.587 133.88ZM320.975 135.72C316.229 135.72 312.015 134.973 308.335 133.48C304.682 132.013 301.815 129.773 299.735 126.76C297.682 123.747 296.655 119.96 296.655 115.4C296.655 111.64 297.309 108.333 298.615 105.48C299.949 102.6 301.775 100.187 304.095 98.24C306.442 96.2667 309.135 94.7867 312.175 93.8C315.242 92.7867 318.509 92.28 321.975 92.28C324.322 92.28 326.669 92.4667 329.015 92.84C331.362 93.1867 333.509 93.8 335.455 94.68C337.402 95.5333 338.962 96.7067 340.135 98.2C341.309 99.6933 341.895 101.56 341.895 103.8C341.895 105.293 341.682 106.6 341.255 107.72C340.855 108.813 340.282 109.76 339.535 110.56C338.789 111.36 337.909 112.053 336.895 112.64C335.909 113.227 334.829 113.76 333.655 114.24C332.482 114.72 330.989 115.173 329.175 115.6C327.389 116.027 325.562 116.373 323.695 116.64C321.855 116.907 320.255 117.04 318.895 117.04C318.069 117.04 317.482 117.133 317.135 117.32C316.789 117.48 316.615 117.787 316.615 118.24C316.615 118.507 316.669 118.747 316.775 118.96C316.909 119.173 317.095 119.347 317.335 119.48C317.629 119.667 318.002 119.8 318.455 119.88C318.935 119.933 319.469 119.96 320.055 119.96C321.415 119.96 322.962 119.707 324.695 119.2C326.429 118.693 328.295 118.187 330.295 117.68C332.322 117.173 334.455 116.92 336.695 116.92C339.095 116.92 341.015 117.36 342.455 118.24C343.922 119.12 344.655 120.867 344.655 123.48C344.655 125.667 343.989 127.547 342.655 129.12C341.322 130.667 339.522 131.92 337.255 132.88C335.015 133.867 332.482 134.587 329.655 135.04C326.829 135.493 323.935 135.72 320.975 135.72ZM319.335 108.88C319.949 108.88 320.655 108.76 321.455 108.52C322.282 108.253 323.002 107.88 323.615 107.4C324.229 106.893 324.535 106.293 324.535 105.6C324.535 104.693 324.175 104.147 323.455 103.96C322.735 103.747 321.989 103.64 321.215 103.64C320.682 103.64 320.135 103.733 319.575 103.92C319.042 104.08 318.549 104.32 318.095 104.64C317.642 104.933 317.269 105.28 316.975 105.68C316.709 106.08 316.575 106.507 316.575 106.96C316.575 107.493 316.695 107.907 316.935 108.2C317.202 108.467 317.549 108.653 317.975 108.76C318.402 108.84 318.855 108.88 319.335 108.88ZM365.726 133.72C363.326 133.72 361.179 133.64 359.286 133.48C357.419 133.347 355.739 133.133 354.246 132.84C352.779 132.547 351.433 132.173 350.206 131.72C348.339 131.027 346.793 130.187 345.566 129.2C344.366 128.213 343.766 126.72 343.766 124.72C343.766 122.533 344.379 120.787 345.606 119.48C346.833 118.147 348.646 117.48 351.046 117.48C352.273 117.48 353.459 117.613 354.606 117.88C355.753 118.12 356.979 118.373 358.286 118.64C359.593 118.88 361.073 119 362.726 119C363.633 119 364.393 118.973 365.006 118.92C365.619 118.867 366.086 118.747 366.406 118.56C366.726 118.373 366.886 118.107 366.886 117.76C366.886 117.36 366.726 117.053 366.406 116.84C366.113 116.6 365.486 116.373 364.526 116.16C363.566 115.947 362.113 115.693 360.166 115.4C357.153 114.92 354.553 114.173 352.366 113.16C350.179 112.147 348.486 110.813 347.286 109.16C346.113 107.507 345.526 105.48 345.526 103.08C345.526 100.84 346.179 98.9467 347.486 97.4C348.793 95.8533 350.566 94.6133 352.806 93.68C355.046 92.72 357.553 92.0267 360.326 91.6C363.126 91.1467 366.006 90.92 368.966 90.92C371.046 90.92 373.153 91.0533 375.286 91.32C377.419 91.56 379.379 91.96 381.166 92.52C382.979 93.08 384.433 93.8267 385.526 94.76C386.619 95.6667 387.166 96.8 387.166 98.16C387.166 99.9733 386.739 101.427 385.886 102.52C385.059 103.613 384.006 104.4 382.726 104.88C381.473 105.333 380.193 105.56 378.886 105.56C377.259 105.56 375.739 105.413 374.326 105.12C372.939 104.827 371.899 104.68 371.206 104.68C370.779 104.68 370.419 104.707 370.126 104.76C369.859 104.813 369.659 104.907 369.526 105.04C369.419 105.147 369.366 105.307 369.366 105.52C369.366 105.867 369.793 106.147 370.646 106.36C371.499 106.547 373.059 106.827 375.326 107.2C377.619 107.547 379.739 108.2 381.686 109.16C383.659 110.093 385.246 111.413 386.446 113.12C387.646 114.827 388.246 117 388.246 119.64C388.246 121.96 387.713 124 386.646 125.76C385.579 127.493 384.059 128.96 382.086 130.16C380.113 131.333 377.739 132.213 374.966 132.8C372.219 133.413 369.139 133.72 365.726 133.72ZM410.182 133.72C407.782 133.72 405.636 133.64 403.742 133.48C401.876 133.347 400.196 133.133 398.702 132.84C397.236 132.547 395.889 132.173 394.662 131.72C392.796 131.027 391.249 130.187 390.022 129.2C388.822 128.213 388.222 126.72 388.222 124.72C388.222 122.533 388.836 120.787 390.062 119.48C391.289 118.147 393.102 117.48 395.502 117.48C396.729 117.48 397.916 117.613 399.062 117.88C400.209 118.12 401.436 118.373 402.742 118.64C404.049 118.88 405.529 119 407.182 119C408.089 119 408.849 118.973 409.462 118.92C410.076 118.867 410.542 118.747 410.862 118.56C411.182 118.373 411.342 118.107 411.342 117.76C411.342 117.36 411.182 117.053 410.862 116.84C410.569 116.6 409.942 116.373 408.982 116.16C408.022 115.947 406.569 115.693 404.622 115.4C401.609 114.92 399.009 114.173 396.822 113.16C394.636 112.147 392.942 110.813 391.742 109.16C390.569 107.507 389.982 105.48 389.982 103.08C389.982 100.84 390.636 98.9467 391.942 97.4C393.249 95.8533 395.022 94.6133 397.262 93.68C399.502 92.72 402.009 92.0267 404.782 91.6C407.582 91.1467 410.462 90.92 413.422 90.92C415.502 90.92 417.609 91.0533 419.742 91.32C421.876 91.56 423.836 91.96 425.622 92.52C427.436 93.08 428.889 93.8267 429.982 94.76C431.076 95.6667 431.622 96.8 431.622 98.16C431.622 99.9733 431.196 101.427 430.342 102.52C429.516 103.613 428.462 104.4 427.182 104.88C425.929 105.333 424.649 105.56 423.342 105.56C421.716 105.56 420.196 105.413 418.782 105.12C417.396 104.827 416.356 104.68 415.662 104.68C415.236 104.68 414.876 104.707 414.582 104.76C414.316 104.813 414.116 104.907 413.982 105.04C413.876 105.147 413.822 105.307 413.822 105.52C413.822 105.867 414.249 106.147 415.102 106.36C415.956 106.547 417.516 106.827 419.782 107.2C422.076 107.547 424.196 108.2 426.142 109.16C428.116 110.093 429.702 111.413 430.902 113.12C432.102 114.827 432.702 117 432.702 119.64C432.702 121.96 432.169 124 431.102 125.76C430.036 127.493 428.516 128.96 426.542 130.16C424.569 131.333 422.196 132.213 419.422 132.8C416.676 133.413 413.596 133.72 410.182 133.72ZM457.079 135.72C452.332 135.72 448.119 134.973 444.439 133.48C440.785 132.013 437.919 129.773 435.839 126.76C433.785 123.747 432.759 119.96 432.759 115.4C432.759 111.64 433.412 108.333 434.719 105.48C436.052 102.6 437.879 100.187 440.199 98.24C442.545 96.2667 445.239 94.7867 448.279 93.8C451.345 92.7867 454.612 92.28 458.079 92.28C460.425 92.28 462.772 92.4667 465.119 92.84C467.465 93.1867 469.612 93.8 471.559 94.68C473.505 95.5333 475.065 96.7067 476.239 98.2C477.412 99.6933 477.999 101.56 477.999 103.8C477.999 105.293 477.785 106.6 477.359 107.72C476.959 108.813 476.385 109.76 475.639 110.56C474.892 111.36 474.012 112.053 472.999 112.64C472.012 113.227 470.932 113.76 469.759 114.24C468.585 114.72 467.092 115.173 465.279 115.6C463.492 116.027 461.665 116.373 459.799 116.64C457.959 116.907 456.359 117.04 454.999 117.04C454.172 117.04 453.585 117.133 453.239 117.32C452.892 117.48 452.719 117.787 452.719 118.24C452.719 118.507 452.772 118.747 452.879 118.96C453.012 119.173 453.199 119.347 453.439 119.48C453.732 119.667 454.105 119.8 454.559 119.88C455.039 119.933 455.572 119.96 456.159 119.96C457.519 119.96 459.065 119.707 460.799 119.2C462.532 118.693 464.399 118.187 466.399 117.68C468.425 117.173 470.559 116.92 472.799 116.92C475.199 116.92 477.119 117.36 478.559 118.24C480.025 119.12 480.759 120.867 480.759 123.48C480.759 125.667 480.092 127.547 478.759 129.12C477.425 130.667 475.625 131.92 473.359 132.88C471.119 133.867 468.585 134.587 465.759 135.04C462.932 135.493 460.039 135.72 457.079 135.72ZM455.439 108.88C456.052 108.88 456.759 108.76 457.559 108.52C458.385 108.253 459.105 107.88 459.719 107.4C460.332 106.893 460.639 106.293 460.639 105.6C460.639 104.693 460.279 104.147 459.559 103.96C458.839 103.747 458.092 103.64 457.319 103.64C456.785 103.64 456.239 103.733 455.679 103.92C455.145 104.08 454.652 104.32 454.199 104.64C453.745 104.933 453.372 105.28 453.079 105.68C452.812 106.08 452.679 106.507 452.679 106.96C452.679 107.493 452.799 107.907 453.039 108.2C453.305 108.467 453.652 108.653 454.079 108.76C454.505 108.84 454.959 108.88 455.439 108.88ZM501.509 134.52C497.376 134.52 493.723 133.973 490.549 132.88C487.376 131.787 484.896 130 483.109 127.52C481.349 125.04 480.469 121.733 480.469 117.6C480.469 113.76 481.096 110.56 482.349 108C483.629 105.44 485.536 103.533 488.069 102.28C490.629 101 493.816 100.36 497.629 100.36C499.229 100.36 500.549 100.547 501.589 100.92C502.656 101.267 503.509 101.587 504.149 101.88C504.443 102.013 504.696 102.133 504.909 102.24C505.149 102.32 505.336 102.36 505.469 102.36C505.896 102.36 506.109 102.093 506.109 101.56C506.109 101.32 506.069 100.88 505.989 100.24C505.936 99.5733 505.856 98.8 505.749 97.92C505.643 97.04 505.523 96.1333 505.389 95.2C505.283 94.24 505.189 93.3333 505.109 92.48C505.056 91.6 505.029 90.8667 505.029 90.28C505.029 83.6933 508.523 80.4 515.509 80.4C517.883 80.4 520.096 80.7867 522.149 81.56C524.203 82.3067 525.883 83.5333 527.189 85.24C527.723 85.96 528.189 86.7333 528.589 87.56C529.016 88.3867 529.376 89.2667 529.669 90.2C529.963 91.1067 530.203 92.08 530.389 93.12C530.576 94.16 530.709 95.2533 530.789 96.4C530.869 97.5467 530.909 98.7467 530.909 100C530.909 107.973 530.003 114.507 528.189 119.6C526.403 124.693 523.363 128.453 519.069 130.88C514.803 133.307 508.949 134.52 501.509 134.52ZM502.189 122.28C503.309 122.28 504.283 122.067 505.109 121.64C505.963 121.213 506.616 120.64 507.069 119.92C507.549 119.2 507.789 118.427 507.789 117.6C507.789 116.747 507.629 116.027 507.309 115.44C507.016 114.853 506.603 114.4 506.069 114.08C505.563 113.76 504.963 113.6 504.269 113.6C503.309 113.6 502.389 113.853 501.509 114.36C500.629 114.867 499.896 115.547 499.309 116.4C498.749 117.227 498.469 118.12 498.469 119.08C498.469 119.747 498.629 120.32 498.949 120.8C499.269 121.28 499.709 121.653 500.269 121.92C500.856 122.16 501.496 122.28 502.189 122.28Z" fill="#87000C"></path>
<path d="M551.396 133.972C549.048 133.966 546.962 133.88 545.137 133.715C543.334 133.577 541.728 133.36 540.319 133.063C538.935 132.766 537.683 132.389 536.563 131.933C534.859 131.235 533.493 130.392 532.467 129.402C531.467 128.413 531.143 126.919 531.495 124.92C531.881 122.734 532.789 120.99 534.219 119.687C535.655 118.357 537.546 117.695 539.895 117.701C541.095 117.704 542.233 117.841 543.308 118.11C544.387 118.353 545.543 118.609 546.774 118.879C548.011 119.122 549.438 119.246 551.055 119.25C551.943 119.253 552.691 119.228 553.3 119.176C553.91 119.124 554.388 119.006 554.734 118.82C555.08 118.634 555.283 118.368 555.344 118.021C555.415 117.621 555.312 117.315 555.037 117.1C554.792 116.86 554.219 116.632 553.317 116.416C552.416 116.2 551.038 115.943 549.185 115.645C546.321 115.158 543.909 114.405 541.948 113.386C539.987 112.368 538.565 111.031 537.682 109.375C536.825 107.72 536.609 105.692 537.032 103.293C537.426 101.054 538.399 99.1633 539.95 97.6206C541.502 96.0779 543.455 94.843 545.812 93.9157C548.173 92.9618 550.748 92.2751 553.536 91.8556C556.356 91.4096 559.214 91.1903 562.11 91.1978C564.146 91.2031 566.183 91.3417 568.224 91.6137C570.269 91.859 572.116 92.2638 573.766 92.8281C575.441 93.3925 576.732 94.1425 577.637 95.0782C578.547 95.9873 578.882 97.1215 578.643 98.4809C578.323 100.294 577.649 101.745 576.622 102.836C575.62 103.927 574.451 104.71 573.114 105.187C571.807 105.637 570.515 105.86 569.237 105.857C567.645 105.853 566.183 105.702 564.852 105.405C563.547 105.109 562.555 104.959 561.877 104.958C561.459 104.957 561.102 104.982 560.806 105.035C560.536 105.088 560.324 105.18 560.17 105.313C560.046 105.42 559.966 105.579 559.928 105.793C559.867 106.139 560.235 106.42 561.033 106.636C561.835 106.824 563.312 107.108 565.464 107.487C567.647 107.839 569.606 108.498 571.342 109.462C573.108 110.4 574.428 111.724 575.301 113.433C576.175 115.142 576.379 117.316 575.913 119.955C575.505 122.274 574.623 124.311 573.269 126.068C571.92 127.798 570.174 129.26 568.032 130.455C565.894 131.622 563.417 132.496 560.6 133.075C557.804 133.682 554.736 133.98 551.396 133.972ZM600.436 134.859C597.044 134.85 593.822 134.468 590.77 133.714C587.74 132.986 585.096 131.846 582.837 130.293C580.61 128.714 578.971 126.683 577.92 124.2C576.896 121.717 576.695 118.717 577.315 115.198C577.996 111.333 579.294 107.896 581.208 104.888C583.148 101.879 585.528 99.3388 588.347 97.2661C591.198 95.1667 594.347 93.5881 597.797 92.5304C601.251 91.4459 604.857 90.9086 608.615 90.9183C612.346 90.928 615.708 91.4034 618.701 92.3445C621.719 93.2857 624.238 94.6923 626.258 96.5643C628.277 98.4362 629.679 100.773 630.464 103.575C631.28 106.351 631.359 109.605 630.701 113.336C630.151 116.455 628.9 119.332 626.947 121.967C624.999 124.575 622.588 126.849 619.714 128.788C616.871 130.701 613.777 132.187 610.432 133.245C607.108 134.329 603.776 134.867 600.436 134.859ZM602.696 115.824C603.635 115.826 604.468 115.695 605.193 115.43C605.949 115.139 606.591 114.754 607.12 114.275C607.679 113.77 608.13 113.211 608.472 112.599C608.815 111.986 609.046 111.347 609.163 110.68C609.29 109.961 609.244 109.334 609.025 108.8C608.806 108.266 608.466 107.825 608.005 107.477C607.544 107.129 607.002 106.875 606.378 106.713C605.784 106.525 605.149 106.43 604.47 106.428C603.505 106.426 602.598 106.61 601.749 106.981C600.9 107.352 600.18 107.884 599.588 108.576C599.023 109.267 598.655 110.093 598.486 111.053C598.326 111.959 598.405 112.773 598.721 113.494C599.038 114.214 599.537 114.789 600.218 115.217C600.931 115.619 601.757 115.821 602.696 115.824ZM654.393 135.839C650.975 135.83 647.78 135.448 644.806 134.694C641.859 133.939 639.32 132.719 637.189 131.034C635.09 129.322 633.593 127.078 632.698 124.302C631.804 121.526 631.717 118.099 632.436 114.021C633.165 109.889 634.371 106.306 636.055 103.27C637.743 100.208 639.888 97.6663 642.489 95.6463C645.095 93.5996 648.129 92.0875 651.591 91.1097C655.057 90.1053 658.917 89.6087 663.17 89.6197C666.64 89.6287 669.374 90.0358 671.373 90.841C673.402 91.6196 674.798 92.6633 675.559 93.9719C676.351 95.254 676.611 96.6681 676.338 98.2141C676.122 99.4403 675.611 100.559 674.807 101.57C674.033 102.555 673.111 103.339 672.042 103.923C670.978 104.48 669.924 104.758 668.88 104.755C668.019 104.753 667.251 104.671 666.574 104.509C665.924 104.347 665.209 104.185 664.428 104.023C663.647 103.861 662.657 103.779 661.457 103.776C660.57 103.773 659.735 103.918 658.953 104.209C658.17 104.501 657.456 104.925 656.809 105.484C656.162 106.042 655.612 106.721 655.158 107.52C654.735 108.292 654.438 109.158 654.269 110.117C653.982 111.743 653.974 113.05 654.244 114.037C654.518 114.998 655.061 115.693 655.873 116.122C656.711 116.551 657.809 116.767 659.165 116.77C660 116.772 660.912 116.708 661.901 116.577C662.916 116.447 663.936 116.289 664.96 116.105C665.985 115.921 666.926 115.764 667.785 115.633C668.643 115.501 669.333 115.437 669.855 115.438C671.682 115.443 673.042 115.873 673.935 116.729C674.854 117.584 675.425 118.639 675.648 119.893C675.871 121.147 675.876 122.374 675.665 123.573C675.261 125.866 674.398 127.797 673.077 129.367C671.782 130.937 670.163 132.199 668.219 133.154C666.276 134.109 664.118 134.797 661.747 135.218C659.376 135.638 656.924 135.845 654.393 135.839ZM686.57 134.402C683.648 134.394 681.48 133.882 680.067 132.865C678.68 131.848 677.856 130.379 677.594 128.458C677.332 126.538 677.439 124.231 677.913 121.539C678.054 120.739 678.206 119.953 678.368 119.18C678.557 118.407 678.741 117.661 678.92 116.941C679.125 116.222 679.339 115.529 679.56 114.863C679.813 114.17 680.061 113.504 680.304 112.865C680.574 112.226 680.851 111.613 681.137 111.027C681.428 110.414 681.738 109.842 682.067 109.309C683.73 106.54 685.841 104.412 688.4 102.926C690.96 101.439 694.053 100.7 697.68 100.71C701.046 100.718 703.311 101.937 704.475 104.367C705.669 106.77 705.91 109.998 705.195 114.049C705.007 115.116 704.785 116.155 704.528 117.168C704.297 118.181 704.034 119.153 703.739 120.086C703.449 120.992 703.122 121.884 702.758 122.763C702.425 123.616 702.047 124.428 701.623 125.201C701.205 125.946 700.765 126.665 700.303 127.357C699.842 128.049 699.338 128.688 698.791 129.273C697.299 130.923 695.536 132.185 693.503 133.06C691.49 133.961 689.179 134.409 686.57 134.402ZM696.796 97.9471C693.013 97.9373 690.371 97.3038 688.869 96.0465C687.368 94.7892 686.763 93.3343 687.055 91.6817C687.435 89.5226 688.516 87.6853 690.298 86.1699C692.084 84.6278 694.182 83.4598 696.593 82.666C699.035 81.8457 701.43 81.4385 703.779 81.4446C705.501 81.4491 707.043 81.7331 708.405 82.2966C709.799 82.8336 710.849 83.6897 711.555 84.8649C712.266 86.0134 712.457 87.5207 712.128 89.3865C711.752 91.519 710.815 93.2099 709.315 94.4594C707.816 95.7089 705.96 96.6108 703.748 97.1651C701.566 97.6928 699.249 97.9535 696.796 97.9471ZM725.735 138.544C723.439 138.538 721.181 138.318 718.96 137.886C716.734 137.48 714.771 136.768 713.071 135.751C711.366 134.76 710.09 133.41 709.243 131.701C708.422 129.992 708.237 127.858 708.688 125.299C709.097 122.98 710.027 121.036 711.479 119.466C712.935 117.87 714.75 116.608 716.923 115.68C719.102 114.726 721.494 114.038 724.1 113.618C726.732 113.199 729.418 112.992 732.158 112.999C732.732 113.001 733.289 113.029 733.827 113.084C734.37 113.112 734.859 113.153 735.293 113.207C735.758 113.235 736.108 113.25 736.343 113.25C736.865 113.252 737.247 113.159 737.488 112.973C737.735 112.76 737.895 112.441 737.97 112.014C737.999 111.854 737.996 111.721 737.963 111.614C737.96 111.481 737.929 111.361 737.87 111.254C737.815 111.121 737.729 111.014 737.613 110.933C737.321 110.666 736.86 110.465 736.231 110.33C735.633 110.168 734.943 110.086 734.16 110.084C733.064 110.082 731.817 110.198 730.418 110.435C729.023 110.644 727.535 110.867 725.953 111.103C724.398 111.339 722.785 111.455 721.115 111.451C718.036 111.443 715.714 110.917 714.149 109.873C712.61 108.829 712.034 107.214 712.419 105.028C712.771 103.029 713.672 101.324 715.122 99.9147C716.597 98.5051 718.417 97.3631 720.581 96.4887C722.772 95.6144 725.128 94.9804 727.652 94.587C730.175 94.1935 732.663 93.9999 735.116 94.0063C740.334 94.0198 744.668 94.5377 748.116 95.56C751.595 96.5558 754.061 98.3355 755.515 100.899C756.999 103.437 757.33 107.038 756.508 111.702C756.362 112.529 756.209 113.248 756.049 113.861C755.888 114.474 755.727 115.02 755.564 115.5C755.401 115.98 755.258 116.419 755.136 116.819C755.018 117.192 754.923 117.578 754.853 117.978C754.712 118.778 754.842 119.592 755.245 120.419C755.678 121.221 756.177 122.089 756.743 123.023C757.34 123.932 757.816 124.933 758.172 126.027C758.553 127.122 758.621 128.362 758.377 129.748C758.015 131.8 757.108 133.318 755.655 134.301C754.198 135.311 752.596 135.813 750.847 135.809C749.595 135.805 748.642 135.51 747.989 134.921C747.357 134.359 746.845 133.785 746.452 133.197C746.055 132.636 745.583 132.355 745.035 132.353C744.617 132.352 744.096 132.498 743.47 132.789C742.866 133.108 742.171 133.493 741.387 133.944C740.427 134.502 739.218 135.138 737.761 135.855C736.298 136.598 734.568 137.233 732.569 137.761C730.596 138.29 728.319 138.55 725.735 138.544ZM729.394 126.233C729.942 126.234 730.502 126.169 731.073 126.037C731.671 125.905 732.239 125.72 732.777 125.481C733.319 125.216 733.767 124.897 734.12 124.525C734.499 124.152 734.731 123.726 734.815 123.247C734.905 122.74 734.829 122.353 734.589 122.086C734.354 121.792 734.026 121.578 733.606 121.443C733.186 121.309 732.754 121.241 732.311 121.24C731.58 121.238 730.807 121.329 729.991 121.514C729.18 121.672 728.463 121.963 727.84 122.388C727.243 122.814 726.876 123.413 726.74 124.186C726.651 124.692 726.737 125.092 726.998 125.386C727.259 125.68 727.6 125.895 728.02 126.029C728.466 126.164 728.924 126.231 729.394 126.233ZM779.483 135.203C776.012 135.194 773.19 134.693 771.015 133.701C768.841 132.708 767.203 131.264 766.102 129.368C765 127.472 764.311 125.163 764.034 122.442C763.911 121.215 763.837 119.855 763.813 118.362C763.82 116.842 763.863 115.268 763.941 113.642C764.045 112.015 764.152 110.442 764.264 108.922C764.406 107.376 764.548 105.976 764.691 104.723C764.86 103.47 765.015 102.444 765.156 101.644C765.856 97.6728 766.734 94.2482 767.789 91.3709C768.871 88.4936 770.344 86.284 772.208 84.7421C774.099 83.2002 776.583 82.4333 779.662 82.4413C783.393 82.451 785.776 83.5239 786.809 85.6599C787.846 87.7694 787.966 91.0898 787.167 95.6212C787.068 96.181 786.926 96.914 786.74 97.8202C786.559 98.6998 786.343 99.6993 786.094 100.819C785.875 101.911 785.631 103.071 785.363 104.297C785.125 105.496 784.875 106.696 784.611 107.895C784.378 109.068 784.155 110.187 783.94 111.253C783.726 112.32 783.546 113.266 783.401 114.092C783.213 115.158 783.117 116.145 783.114 117.052C783.115 117.932 783.214 118.705 783.409 119.372C783.636 120.013 783.951 120.52 784.355 120.895C784.79 121.243 785.333 121.417 785.985 121.419C786.742 121.421 787.553 121.263 788.418 120.945C789.288 120.601 790.182 120.27 791.099 119.952C792.022 119.608 792.926 119.437 793.813 119.439C795.04 119.443 795.936 119.912 796.502 120.846C797.068 121.781 797.213 123.035 796.935 124.608C796.634 126.314 795.845 127.832 794.566 129.162C793.313 130.492 791.798 131.608 790.021 132.51C788.248 133.385 786.421 134.047 784.541 134.496C782.682 134.971 780.996 135.207 779.483 135.203ZM818.043 134.663C815.694 134.657 813.608 134.571 811.784 134.406C809.981 134.268 808.374 134.051 806.965 133.754C805.582 133.457 804.33 133.08 803.209 132.624C801.505 131.926 800.14 131.083 799.113 130.093C798.113 129.104 797.789 127.61 798.142 125.611C798.527 123.425 799.435 121.681 800.866 120.378C802.301 119.048 804.193 118.386 806.541 118.392C807.741 118.395 808.879 118.532 809.954 118.801C811.034 119.044 812.189 119.3 813.421 119.57C814.657 119.813 816.084 119.937 817.702 119.941C818.589 119.944 819.337 119.919 819.947 119.867C820.556 119.815 821.034 119.697 821.38 119.511C821.726 119.325 821.93 119.059 821.991 118.712C822.061 118.312 821.959 118.006 821.683 117.792C821.439 117.551 820.865 117.323 819.964 117.107C819.062 116.891 817.684 116.634 815.831 116.336C812.968 115.849 810.555 115.096 808.594 114.077C806.633 113.059 805.211 111.722 804.328 110.066C803.472 108.411 803.255 106.383 803.678 103.984C804.073 101.745 805.046 99.8544 806.597 98.3117C808.148 96.769 810.102 95.534 812.458 94.6067C814.819 93.6528 817.394 92.9661 820.183 92.5467C823.002 92.1006 825.86 91.8814 828.757 91.8889C830.792 91.8942 832.83 92.0328 834.87 92.3047C836.915 92.55 838.763 92.9549 840.412 93.5191C842.088 94.0835 843.378 94.8335 844.284 95.7693C845.194 96.6783 845.529 97.8126 845.289 99.172C844.969 100.985 844.296 102.436 843.268 103.527C842.266 104.618 841.097 105.401 839.76 105.878C838.454 106.328 837.161 106.551 835.883 106.548C834.291 106.544 832.83 106.393 831.499 106.097C830.193 105.8 829.202 105.651 828.523 105.649C828.106 105.648 827.749 105.673 827.452 105.726C827.182 105.779 826.97 105.871 826.816 106.004C826.693 106.111 826.612 106.271 826.575 106.484C826.514 106.83 826.882 107.111 827.679 107.327C828.481 107.515 829.958 107.799 832.11 108.178C834.293 108.531 836.253 109.189 837.988 110.153C839.754 111.091 841.074 112.415 841.948 114.124C842.821 115.833 843.025 118.007 842.56 120.646C842.151 122.965 841.27 125.003 839.916 126.759C838.566 128.489 836.821 129.951 834.678 131.146C832.541 132.314 830.063 133.187 827.246 133.767C824.45 134.373 821.383 134.671 818.043 134.663Z" fill="#87000C"></path>
</svg>