<svg width="72" height="94" viewBox="41 45 72 94" fill="none" xmlns="http://www.w3.org/2000/svg">
<path d="M60.1646 97.9903C63.7198 78.4367 72.1634 64.6603 85.4954 56.6611" stroke="#87000C" stroke-width="7.9992" stroke-linecap="round" stroke-linejoin="round"></path>
<path d="M92.1616 100.657C88.6064 81.1031 86.3844 66.4379 85.4956 56.6611" stroke="#87000C" stroke-width="7.9992" stroke-linecap="round" stroke-linejoin="round"></path>
<path d="M85.4956 56.6606C95.2724 47.7726 104.16 45.995 112.16 51.3278C105.938 60.2158 97.05 62.4378 85.4956 57.9938" fill="#87000C"></path>
<path d="M60.1648 135.32C70.4731 135.32 78.8296 126.963 78.8296 116.655C78.8296 106.347 70.4731 97.9902 60.1648 97.9902C49.8565 97.9902 41.5 106.347 41.5 116.655C41.5 126.963 49.8565 135.32 60.1648 135.32Z" fill="#87000C"></path>
<path d="M92.1614 137.986C102.47 137.986 110.826 129.629 110.826 119.321C110.826 109.013 102.47 100.656 92.1614 100.656C81.8531 100.656 73.4966 109.013 73.4966 119.321C73.4966 129.629 81.8531 137.986 92.1614 137.986Z" fill="#87000C"></path>
</svg>