<svg width="86" height="86" viewBox="0 0 86 86" fill="none" xmlns="http://www.w3.org/2000/svg">
<rect width="86" height="86" rx="43" fill="#E9FFC1"></rect>
<path d="M32.3999 42.7989C34.3555 32.5372 38.9999 25.3073 46.3332 21.1094" stroke="#1E5B62" stroke-width="1.619" stroke-linecap="round" stroke-linejoin="round"></path>
<path d="M50.0002 44.1982C48.0446 33.9365 46.8224 26.2402 46.3335 21.1094" stroke="#1E5B62" stroke-width="1.619" stroke-linecap="round" stroke-linejoin="round"></path>
<path d="M46.3335 21.1085C51.7104 16.4448 56.5986 15.5121 60.9979 18.3103C57.5762 22.974 52.6881 24.1399 46.3335 21.8081" fill="#1E5B62"></path>
<path d="M32.4 62.3893C38.0701 62.3893 42.6666 58.0038 42.6666 52.5941C42.6666 47.1843 38.0701 42.7988 32.4 42.7988C26.7298 42.7988 22.1333 47.1843 22.1333 52.5941C22.1333 58.0038 26.7298 62.3893 32.4 62.3893Z" fill="#1E5B62"></path>
<path d="M50.0001 63.7887C55.6702 63.7887 60.2667 59.4033 60.2667 53.9935C60.2667 48.5837 55.6702 44.1982 50.0001 44.1982C44.3299 44.1982 39.7334 48.5837 39.7334 53.9935C39.7334 59.4033 44.3299 63.7887 50.0001 63.7887Z" fill="#1E5B62"></path>
</svg>