<svg width="974" height="243" viewBox="0 0 974 243" fill="none" xmlns="http://www.w3.org/2000/svg">
<g clip-path="url(#clip0_459_888)">
<path d="M83.9976 126.833C87.5528 107.28 95.9964 93.5031 109.328 85.5039" stroke="#FFEAF2" stroke-width="7.9992" stroke-linecap="round" stroke-linejoin="round"></path>
<path d="M115.995 129.5C112.439 109.946 110.217 95.2807 109.329 85.5039" stroke="#FFEAF2" stroke-width="7.9992" stroke-linecap="round" stroke-linejoin="round"></path>
<path d="M109.329 85.5034C119.105 76.6154 127.993 74.8378 135.993 80.1706C129.771 89.0586 120.883 91.2806 109.329 86.8366" fill="#FFEAF2"></path>
<path d="M83.9978 164.163C94.3061 164.163 102.663 155.806 102.663 145.498C102.663 135.19 94.3061 126.833 83.9978 126.833C73.6895 126.833 65.333 135.19 65.333 145.498C65.333 155.806 73.6895 164.163 83.9978 164.163Z" fill="#FFEAF2"></path>
<path d="M115.994 166.829C126.303 166.829 134.659 158.472 134.659 148.164C134.659 137.856 126.303 129.499 115.994 129.499C105.686 129.499 97.3296 137.856 97.3296 148.164C97.3296 158.472 105.686 166.829 115.994 166.829Z" fill="#FFEAF2"></path>
</g>
<path d="M177.312 139.776C172.832 139.776 168.792 139.283 165.192 138.296C161.619 137.336 158.566 135.87 156.032 133.896C153.499 131.896 151.552 129.35 150.192 126.256C148.859 123.163 148.192 119.496 148.192 115.256C148.192 114.083 148.259 112.95 148.392 111.856C148.552 110.763 148.779 109.723 149.072 108.736C149.392 107.75 149.766 106.83 150.192 105.976C151.286 103.843 152.806 102.163 154.752 100.936C156.726 99.6829 159.086 99.0562 161.832 99.0562C164.552 99.0562 166.579 99.4562 167.912 100.256C169.272 101.056 170.179 102.043 170.632 103.216C171.112 104.39 171.379 105.523 171.432 106.616C171.486 107.31 171.526 107.976 171.552 108.616C171.606 109.23 171.659 109.83 171.712 110.416C171.766 110.976 171.819 111.523 171.872 112.056C171.952 112.563 172.032 113.056 172.112 113.536C172.432 115.296 172.832 116.696 173.312 117.736C173.819 118.776 174.446 119.536 175.192 120.016C175.966 120.47 176.886 120.696 177.952 120.696C178.646 120.696 179.326 120.523 179.992 120.176C180.686 119.83 181.312 119.216 181.872 118.336C182.459 117.456 182.939 116.23 183.312 114.656C183.499 113.91 183.632 113.19 183.712 112.496C183.819 111.776 183.899 111.083 183.952 110.416C184.032 109.723 184.139 109.043 184.272 108.376C184.406 107.71 184.592 107.043 184.832 106.376C185.526 104.563 186.672 103.07 188.272 101.896C189.899 100.723 192.206 100.136 195.192 100.136C197.832 100.136 199.859 100.803 201.272 102.136C202.712 103.443 203.752 105.19 204.392 107.376C204.579 108.043 204.739 108.75 204.872 109.496C205.006 110.243 205.099 111.03 205.152 111.856C205.232 112.656 205.286 113.483 205.312 114.336C205.366 115.19 205.392 116.056 205.392 116.936C205.392 122.483 204.179 126.936 201.752 130.296C199.326 133.63 195.992 136.043 191.752 137.536C187.539 139.03 182.726 139.776 177.312 139.776ZM217.475 137.536C214.968 137.536 212.875 137.136 211.195 136.336C209.515 135.51 208.248 134.163 207.395 132.296C207.155 131.763 206.955 131.176 206.795 130.536C206.661 129.896 206.555 129.203 206.475 128.456C206.395 127.71 206.355 126.923 206.355 126.096C206.355 120.47 207.541 115.67 209.915 111.696C212.288 107.696 215.555 104.643 219.715 102.536C223.901 100.403 228.661 99.3362 233.995 99.3362C239.408 99.3362 244.261 100.376 248.555 102.456C252.875 104.536 256.288 107.523 258.795 111.416C261.301 115.283 262.555 119.896 262.555 125.256C262.555 126.056 262.501 126.83 262.395 127.576C262.288 128.296 262.128 128.99 261.915 129.656C261.728 130.323 261.488 130.963 261.195 131.576C260.288 133.443 258.968 134.91 257.235 135.976C255.501 137.016 253.488 137.536 251.195 137.536C248.368 137.536 246.168 137.19 244.595 136.496C243.048 135.776 241.928 134.763 241.235 133.456C240.541 132.123 240.048 130.55 239.755 128.736C239.568 127.563 239.381 126.496 239.195 125.536C239.035 124.55 238.861 123.67 238.675 122.896C238.488 122.123 238.301 121.443 238.115 120.856C237.955 120.243 237.781 119.71 237.595 119.256C237.168 118.27 236.701 117.603 236.195 117.256C235.715 116.883 235.141 116.696 234.475 116.696C233.968 116.696 233.488 116.883 233.035 117.256C232.581 117.603 232.141 118.243 231.715 119.176C231.501 119.656 231.288 120.23 231.075 120.896C230.861 121.536 230.648 122.296 230.435 123.176C230.248 124.03 230.061 125.003 229.875 126.096C229.688 127.163 229.488 128.363 229.275 129.696C228.981 131.75 228.261 133.35 227.115 134.496C225.968 135.616 224.555 136.403 222.875 136.856C221.221 137.31 219.421 137.536 217.475 137.536ZM285.616 139.176C281.483 139.176 277.829 138.63 274.656 137.536C271.483 136.443 269.003 134.656 267.216 132.176C265.456 129.696 264.576 126.39 264.576 122.256C264.576 118.416 265.203 115.216 266.456 112.656C267.736 110.096 269.643 108.19 272.176 106.936C274.736 105.656 277.923 105.016 281.736 105.016C283.336 105.016 284.656 105.203 285.696 105.576C286.763 105.923 287.616 106.243 288.256 106.536C288.549 106.67 288.803 106.79 289.016 106.896C289.256 106.976 289.443 107.016 289.576 107.016C290.003 107.016 290.216 106.75 290.216 106.216C290.216 105.976 290.176 105.536 290.096 104.896C290.043 104.23 289.963 103.456 289.856 102.576C289.749 101.696 289.629 100.79 289.496 99.8562C289.389 98.8962 289.296 97.9896 289.216 97.1362C289.163 96.2562 289.136 95.5229 289.136 94.9362C289.136 88.3496 292.629 85.0562 299.616 85.0562C301.989 85.0562 304.203 85.4429 306.256 86.2162C308.309 86.9629 309.989 88.1896 311.296 89.8962C311.829 90.6162 312.296 91.3896 312.696 92.2162C313.123 93.0429 313.483 93.9229 313.776 94.8562C314.069 95.7629 314.309 96.7362 314.496 97.7762C314.683 98.8162 314.816 99.9096 314.896 101.056C314.976 102.203 315.016 103.403 315.016 104.656C315.016 112.63 314.109 119.163 312.296 124.256C310.509 129.35 307.469 133.11 303.176 135.536C298.909 137.963 293.056 139.176 285.616 139.176ZM286.296 126.936C287.416 126.936 288.389 126.723 289.216 126.296C290.069 125.87 290.723 125.296 291.176 124.576C291.656 123.856 291.896 123.083 291.896 122.256C291.896 121.403 291.736 120.683 291.416 120.096C291.123 119.51 290.709 119.056 290.176 118.736C289.669 118.416 289.069 118.256 288.376 118.256C287.416 118.256 286.496 118.51 285.616 119.016C284.736 119.523 284.003 120.203 283.416 121.056C282.856 121.883 282.576 122.776 282.576 123.736C282.576 124.403 282.736 124.976 283.056 125.456C283.376 125.936 283.816 126.31 284.376 126.576C284.963 126.816 285.603 126.936 286.296 126.936ZM332.587 138.536C330.934 138.536 329.467 138.35 328.187 137.976C326.934 137.603 325.827 137.083 324.867 136.416C323.934 135.723 323.094 134.91 322.347 133.976C321.574 132.99 320.894 131.896 320.307 130.696C319.721 129.47 319.227 128.176 318.827 126.816C318.454 125.43 318.161 123.99 317.947 122.496C317.761 121.003 317.667 119.496 317.667 117.976C317.667 113.443 318.747 109.576 320.907 106.376C323.067 103.15 326.027 100.683 329.787 98.9762C333.574 97.2429 337.881 96.3762 342.707 96.3762C345.187 96.3762 347.627 96.5896 350.027 97.0162C352.454 97.4429 354.641 98.1096 356.587 99.0162C358.534 99.9229 360.094 101.096 361.267 102.536C362.441 103.95 363.027 105.656 363.027 107.656C363.027 109.63 362.627 111.163 361.827 112.256C361.054 113.35 360.041 114.11 358.787 114.536C357.561 114.936 356.281 115.136 354.947 115.136C353.107 115.136 351.521 114.963 350.187 114.616C348.854 114.27 347.414 114.096 345.867 114.096C344.721 114.096 343.721 114.403 342.867 115.016C342.014 115.603 341.587 116.71 341.587 118.336C341.587 119.03 341.614 119.723 341.667 120.416C341.747 121.083 341.841 121.75 341.947 122.416C342.054 123.056 342.161 123.71 342.267 124.376C342.374 125.043 342.454 125.696 342.507 126.336C342.587 126.976 342.627 127.63 342.627 128.296C342.627 131.683 341.827 134.243 340.227 135.976C338.654 137.683 336.107 138.536 332.587 138.536ZM386.976 140.376C382.229 140.376 378.016 139.63 374.336 138.136C370.683 136.67 367.816 134.43 365.736 131.416C363.683 128.403 362.656 124.616 362.656 120.056C362.656 116.296 363.309 112.99 364.616 110.136C365.949 107.256 367.776 104.843 370.096 102.896C372.443 100.923 375.136 99.4429 378.176 98.4562C381.243 97.4429 384.509 96.9362 387.976 96.9362C390.323 96.9362 392.669 97.1229 395.016 97.4962C397.363 97.8429 399.509 98.4562 401.456 99.3362C403.403 100.19 404.963 101.363 406.136 102.856C407.309 104.35 407.896 106.216 407.896 108.456C407.896 109.95 407.683 111.256 407.256 112.376C406.856 113.47 406.283 114.416 405.536 115.216C404.789 116.016 403.909 116.71 402.896 117.296C401.909 117.883 400.829 118.416 399.656 118.896C398.483 119.376 396.989 119.83 395.176 120.256C393.389 120.683 391.563 121.03 389.696 121.296C387.856 121.563 386.256 121.696 384.896 121.696C384.069 121.696 383.483 121.79 383.136 121.976C382.789 122.136 382.616 122.443 382.616 122.896C382.616 123.163 382.669 123.403 382.776 123.616C382.909 123.83 383.096 124.003 383.336 124.136C383.629 124.323 384.003 124.456 384.456 124.536C384.936 124.59 385.469 124.616 386.056 124.616C387.416 124.616 388.963 124.363 390.696 123.856C392.429 123.35 394.296 122.843 396.296 122.336C398.323 121.83 400.456 121.576 402.696 121.576C405.096 121.576 407.016 122.016 408.456 122.896C409.923 123.776 410.656 125.523 410.656 128.136C410.656 130.323 409.989 132.203 408.656 133.776C407.323 135.323 405.523 136.576 403.256 137.536C401.016 138.523 398.483 139.243 395.656 139.696C392.829 140.15 389.936 140.376 386.976 140.376ZM385.336 113.536C385.949 113.536 386.656 113.416 387.456 113.176C388.283 112.91 389.003 112.536 389.616 112.056C390.229 111.55 390.536 110.95 390.536 110.256C390.536 109.35 390.176 108.803 389.456 108.616C388.736 108.403 387.989 108.296 387.216 108.296C386.683 108.296 386.136 108.39 385.576 108.576C385.043 108.736 384.549 108.976 384.096 109.296C383.643 109.59 383.269 109.936 382.976 110.336C382.709 110.736 382.576 111.163 382.576 111.616C382.576 112.15 382.696 112.563 382.936 112.856C383.203 113.123 383.549 113.31 383.976 113.416C384.403 113.496 384.856 113.536 385.336 113.536ZM431.727 138.376C429.327 138.376 427.18 138.296 425.287 138.136C423.42 138.003 421.74 137.79 420.247 137.496C418.78 137.203 417.433 136.83 416.207 136.376C414.34 135.683 412.793 134.843 411.567 133.856C410.367 132.87 409.767 131.376 409.767 129.376C409.767 127.19 410.38 125.443 411.607 124.136C412.833 122.803 414.647 122.136 417.047 122.136C418.273 122.136 419.46 122.27 420.607 122.536C421.753 122.776 422.98 123.03 424.287 123.296C425.593 123.536 427.073 123.656 428.727 123.656C429.633 123.656 430.393 123.63 431.007 123.576C431.62 123.523 432.087 123.403 432.407 123.216C432.727 123.03 432.887 122.763 432.887 122.416C432.887 122.016 432.727 121.71 432.407 121.496C432.113 121.256 431.487 121.03 430.527 120.816C429.567 120.603 428.113 120.35 426.167 120.056C423.153 119.576 420.553 118.83 418.367 117.816C416.18 116.803 414.487 115.47 413.287 113.816C412.113 112.163 411.527 110.136 411.527 107.736C411.527 105.496 412.18 103.603 413.487 102.056C414.793 100.51 416.567 99.2696 418.807 98.3362C421.047 97.3762 423.553 96.6829 426.327 96.2563C429.127 95.8029 432.007 95.5762 434.967 95.5762C437.047 95.5762 439.153 95.7096 441.287 95.9762C443.42 96.2162 445.38 96.6162 447.167 97.1762C448.98 97.7362 450.433 98.4829 451.527 99.4162C452.62 100.323 453.167 101.456 453.167 102.816C453.167 104.63 452.74 106.083 451.887 107.176C451.06 108.27 450.007 109.056 448.727 109.536C447.473 109.99 446.193 110.216 444.887 110.216C443.26 110.216 441.74 110.07 440.327 109.776C438.94 109.483 437.9 109.336 437.207 109.336C436.78 109.336 436.42 109.363 436.127 109.416C435.86 109.47 435.66 109.563 435.527 109.696C435.42 109.803 435.367 109.963 435.367 110.176C435.367 110.523 435.793 110.803 436.647 111.016C437.5 111.203 439.06 111.483 441.327 111.856C443.62 112.203 445.74 112.856 447.687 113.816C449.66 114.75 451.247 116.07 452.447 117.776C453.647 119.483 454.247 121.656 454.247 124.296C454.247 126.616 453.713 128.656 452.647 130.416C451.58 132.15 450.06 133.616 448.087 134.816C446.113 135.99 443.74 136.87 440.967 137.456C438.22 138.07 435.14 138.376 431.727 138.376ZM476.183 138.376C473.783 138.376 471.636 138.296 469.743 138.136C467.876 138.003 466.196 137.79 464.703 137.496C463.236 137.203 461.889 136.83 460.663 136.376C458.796 135.683 457.249 134.843 456.023 133.856C454.823 132.87 454.223 131.376 454.223 129.376C454.223 127.19 454.836 125.443 456.063 124.136C457.289 122.803 459.103 122.136 461.503 122.136C462.729 122.136 463.916 122.27 465.063 122.536C466.209 122.776 467.436 123.03 468.743 123.296C470.049 123.536 471.529 123.656 473.183 123.656C474.089 123.656 474.849 123.63 475.463 123.576C476.076 123.523 476.543 123.403 476.863 123.216C477.183 123.03 477.343 122.763 477.343 122.416C477.343 122.016 477.183 121.71 476.863 121.496C476.569 121.256 475.943 121.03 474.983 120.816C474.023 120.603 472.569 120.35 470.623 120.056C467.609 119.576 465.009 118.83 462.823 117.816C460.636 116.803 458.943 115.47 457.743 113.816C456.569 112.163 455.983 110.136 455.983 107.736C455.983 105.496 456.636 103.603 457.943 102.056C459.249 100.51 461.023 99.2696 463.263 98.3362C465.503 97.3762 468.009 96.6829 470.783 96.2563C473.583 95.8029 476.463 95.5762 479.423 95.5762C481.503 95.5762 483.609 95.7096 485.743 95.9762C487.876 96.2162 489.836 96.6162 491.623 97.1762C493.436 97.7362 494.889 98.4829 495.983 99.4162C497.076 100.323 497.623 101.456 497.623 102.816C497.623 104.63 497.196 106.083 496.343 107.176C495.516 108.27 494.463 109.056 493.183 109.536C491.929 109.99 490.649 110.216 489.343 110.216C487.716 110.216 486.196 110.07 484.783 109.776C483.396 109.483 482.356 109.336 481.663 109.336C481.236 109.336 480.876 109.363 480.583 109.416C480.316 109.47 480.116 109.563 479.983 109.696C479.876 109.803 479.823 109.963 479.823 110.176C479.823 110.523 480.249 110.803 481.103 111.016C481.956 111.203 483.516 111.483 485.783 111.856C488.076 112.203 490.196 112.856 492.143 113.816C494.116 114.75 495.703 116.07 496.903 117.776C498.103 119.483 498.703 121.656 498.703 124.296C498.703 126.616 498.169 128.656 497.103 130.416C496.036 132.15 494.516 133.616 492.543 134.816C490.569 135.99 488.196 136.87 485.423 137.456C482.676 138.07 479.596 138.376 476.183 138.376ZM523.079 140.376C518.332 140.376 514.119 139.63 510.439 138.136C506.786 136.67 503.919 134.43 501.839 131.416C499.786 128.403 498.759 124.616 498.759 120.056C498.759 116.296 499.412 112.99 500.719 110.136C502.052 107.256 503.879 104.843 506.199 102.896C508.546 100.923 511.239 99.4429 514.279 98.4562C517.346 97.4429 520.612 96.9362 524.079 96.9362C526.426 96.9362 528.772 97.1229 531.119 97.4962C533.466 97.8429 535.612 98.4562 537.559 99.3362C539.506 100.19 541.066 101.363 542.239 102.856C543.412 104.35 543.999 106.216 543.999 108.456C543.999 109.95 543.786 111.256 543.359 112.376C542.959 113.47 542.386 114.416 541.639 115.216C540.892 116.016 540.012 116.71 538.999 117.296C538.012 117.883 536.932 118.416 535.759 118.896C534.586 119.376 533.092 119.83 531.279 120.256C529.492 120.683 527.666 121.03 525.799 121.296C523.959 121.563 522.359 121.696 520.999 121.696C520.172 121.696 519.586 121.79 519.239 121.976C518.892 122.136 518.719 122.443 518.719 122.896C518.719 123.163 518.772 123.403 518.879 123.616C519.012 123.83 519.199 124.003 519.439 124.136C519.732 124.323 520.106 124.456 520.559 124.536C521.039 124.59 521.572 124.616 522.159 124.616C523.519 124.616 525.066 124.363 526.799 123.856C528.532 123.35 530.399 122.843 532.399 122.336C534.426 121.83 536.559 121.576 538.799 121.576C541.199 121.576 543.119 122.016 544.559 122.896C546.026 123.776 546.759 125.523 546.759 128.136C546.759 130.323 546.092 132.203 544.759 133.776C543.426 135.323 541.626 136.576 539.359 137.536C537.119 138.523 534.586 139.243 531.759 139.696C528.932 140.15 526.039 140.376 523.079 140.376ZM521.439 113.536C522.052 113.536 522.759 113.416 523.559 113.176C524.386 112.91 525.106 112.536 525.719 112.056C526.332 111.55 526.639 110.95 526.639 110.256C526.639 109.35 526.279 108.803 525.559 108.616C524.839 108.403 524.092 108.296 523.319 108.296C522.786 108.296 522.239 108.39 521.679 108.576C521.146 108.736 520.652 108.976 520.199 109.296C519.746 109.59 519.372 109.936 519.079 110.336C518.812 110.736 518.679 111.163 518.679 111.616C518.679 112.15 518.799 112.563 519.039 112.856C519.306 113.123 519.652 113.31 520.079 113.416C520.506 113.496 520.959 113.536 521.439 113.536ZM567.51 139.176C563.376 139.176 559.723 138.63 556.55 137.536C553.376 136.443 550.896 134.656 549.11 132.176C547.35 129.696 546.47 126.39 546.47 122.256C546.47 118.416 547.096 115.216 548.35 112.656C549.63 110.096 551.536 108.19 554.07 106.936C556.63 105.656 559.816 105.016 563.63 105.016C565.23 105.016 566.55 105.203 567.59 105.576C568.656 105.923 569.51 106.243 570.15 106.536C570.443 106.67 570.696 106.79 570.91 106.896C571.15 106.976 571.336 107.016 571.47 107.016C571.896 107.016 572.11 106.75 572.11 106.216C572.11 105.976 572.07 105.536 571.99 104.896C571.936 104.23 571.856 103.456 571.75 102.576C571.643 101.696 571.523 100.79 571.39 99.8562C571.283 98.8962 571.19 97.9896 571.11 97.1362C571.056 96.2562 571.03 95.5229 571.03 94.9362C571.03 88.3496 574.523 85.0562 581.51 85.0562C583.883 85.0562 586.096 85.4429 588.15 86.2162C590.203 86.9629 591.883 88.1896 593.19 89.8962C593.723 90.6162 594.19 91.3896 594.59 92.2162C595.016 93.0429 595.376 93.9229 595.67 94.8562C595.963 95.7629 596.203 96.7362 596.39 97.7762C596.576 98.8162 596.71 99.9096 596.79 101.056C596.87 102.203 596.91 103.403 596.91 104.656C596.91 112.63 596.003 119.163 594.19 124.256C592.403 129.35 589.363 133.11 585.07 135.536C580.803 137.963 574.95 139.176 567.51 139.176ZM568.19 126.936C569.31 126.936 570.283 126.723 571.11 126.296C571.963 125.87 572.616 125.296 573.07 124.576C573.55 123.856 573.79 123.083 573.79 122.256C573.79 121.403 573.63 120.683 573.31 120.096C573.016 119.51 572.603 119.056 572.07 118.736C571.563 118.416 570.963 118.256 570.27 118.256C569.31 118.256 568.39 118.51 567.51 119.016C566.63 119.523 565.896 120.203 565.31 121.056C564.75 121.883 564.47 122.776 564.47 123.736C564.47 124.403 564.63 124.976 564.95 125.456C565.27 125.936 565.71 126.31 566.27 126.576C566.856 126.816 567.496 126.936 568.19 126.936Z" fill="#FFEAF2"></path>
<path d="M617.397 138.628C615.049 138.622 612.962 138.536 611.138 138.372C609.335 138.234 607.729 138.016 606.319 137.719C604.936 137.422 603.684 137.046 602.563 136.589C600.859 135.892 599.494 135.048 598.467 134.059C597.467 133.069 597.143 131.575 597.496 129.576C597.881 127.39 598.789 125.646 600.22 124.343C601.655 123.013 603.547 122.351 605.895 122.357C607.095 122.361 608.233 122.497 609.308 122.766C610.388 123.009 611.543 123.265 612.775 123.535C614.011 123.779 615.438 123.902 617.056 123.906C617.943 123.909 618.691 123.884 619.301 123.832C619.911 123.781 620.388 123.662 620.734 123.476C621.08 123.29 621.284 123.024 621.345 122.678C621.415 122.278 621.313 121.971 621.037 121.757C620.793 121.516 620.22 121.288 619.318 121.072C618.416 120.857 617.039 120.6 615.186 120.301C612.322 119.814 609.909 119.061 607.948 118.043C605.987 117.024 604.565 115.687 603.683 114.031C602.826 112.376 602.609 110.349 603.032 107.95C603.427 105.71 604.4 103.82 605.951 102.277C607.502 100.734 609.456 99.4992 611.812 98.5719C614.173 97.618 616.748 96.9313 619.537 96.5119C622.357 96.0658 625.215 95.8466 628.111 95.8541C630.146 95.8594 632.184 95.998 634.224 96.2699C636.269 96.5153 638.117 96.9201 639.766 97.4844C641.442 98.0487 642.732 98.7988 643.638 99.7345C644.548 100.644 644.883 101.778 644.643 103.137C644.324 104.95 643.65 106.401 642.622 107.492C641.621 108.583 640.451 109.367 639.114 109.843C637.808 110.293 636.516 110.516 635.237 110.513C633.645 110.509 632.184 110.359 630.853 110.062C629.548 109.765 628.556 109.616 627.877 109.614C627.46 109.613 627.103 109.639 626.807 109.691C626.536 109.744 626.324 109.837 626.17 109.97C626.047 110.076 625.967 110.236 625.929 110.449C625.868 110.795 626.236 111.076 627.033 111.292C627.835 111.481 629.312 111.764 631.465 112.143C633.647 112.496 635.607 113.154 637.342 114.119C639.109 115.057 640.428 116.38 641.302 118.089C642.175 119.798 642.379 121.972 641.914 124.611C641.505 126.93 640.624 128.968 639.27 130.724C637.921 132.454 636.175 133.916 634.032 135.111C631.895 136.279 629.417 137.152 626.6 137.732C623.805 138.338 620.737 138.637 617.397 138.628ZM666.436 139.515C663.044 139.506 659.822 139.125 656.771 138.37C653.74 137.642 651.096 136.502 648.838 134.949C646.61 133.37 644.971 131.339 643.921 128.856C642.897 126.374 642.695 123.373 643.315 119.854C643.997 115.989 645.295 112.553 647.209 109.544C649.149 106.536 651.529 103.995 654.348 101.922C657.198 99.8229 660.348 98.2444 663.798 97.1866C667.252 96.1022 670.858 95.5649 674.615 95.5746C678.346 95.5843 681.708 96.0597 684.701 97.0008C687.72 97.942 690.239 99.3486 692.258 101.221C694.278 103.092 695.68 105.43 696.465 108.232C697.281 111.007 697.36 114.261 696.702 117.993C696.152 121.111 694.9 123.988 692.948 126.623C691 129.232 688.589 131.505 685.715 133.445C682.872 135.357 679.777 136.843 676.432 137.901C673.108 138.986 669.776 139.524 666.436 139.515ZM668.696 120.48C669.636 120.483 670.468 120.351 671.194 120.087C671.95 119.795 672.592 119.41 673.12 118.932C673.679 118.426 674.13 117.867 674.473 117.255C674.816 116.643 675.046 116.003 675.164 115.337C675.291 114.617 675.244 113.99 675.025 113.456C674.806 112.922 674.466 112.481 674.006 112.134C673.545 111.786 673.002 111.531 672.378 111.369C671.785 111.181 671.149 111.086 670.471 111.084C669.505 111.082 668.598 111.266 667.75 111.637C666.901 112.009 666.181 112.54 665.589 113.232C665.023 113.924 664.656 114.749 664.486 115.709C664.327 116.615 664.405 117.429 664.722 118.15C665.038 118.871 665.537 119.445 666.219 119.874C666.931 120.276 667.757 120.478 668.696 120.48ZM720.394 140.495C716.976 140.486 713.78 140.104 710.807 139.35C707.859 138.596 705.32 137.376 703.19 135.69C701.09 133.978 699.593 131.734 698.699 128.958C697.805 126.182 697.717 122.755 698.436 118.677C699.165 114.546 700.371 110.962 702.055 107.926C703.744 104.864 705.889 102.323 708.49 100.303C711.096 98.2559 714.129 96.7437 717.591 95.766C721.057 94.7616 724.917 94.2649 729.17 94.2759C732.64 94.2849 735.375 94.692 737.374 95.4972C739.403 96.2759 740.798 97.3195 741.559 98.6282C742.352 99.9103 742.611 101.324 742.339 102.87C742.122 104.097 741.612 105.215 740.807 106.227C740.033 107.211 739.112 107.996 738.043 108.579C736.979 109.137 735.925 109.414 734.881 109.411C734.02 109.409 733.251 109.327 732.575 109.165C731.925 109.004 731.209 108.842 730.429 108.68C729.648 108.518 728.657 108.435 727.457 108.432C726.57 108.43 725.735 108.574 724.953 108.866C724.171 109.157 723.456 109.582 722.81 110.14C722.163 110.698 721.613 111.377 721.158 112.176C720.735 112.948 720.439 113.814 720.27 114.774C719.983 116.4 719.974 117.706 720.244 118.694C720.518 119.654 721.062 120.349 721.874 120.778C722.712 121.207 723.809 121.423 725.166 121.427C726.001 121.429 726.913 121.364 727.902 121.234C728.917 121.103 729.936 120.946 730.961 120.762C731.985 120.578 732.927 120.42 733.785 120.289C734.644 120.158 735.334 120.093 735.856 120.094C737.682 120.099 739.042 120.529 739.935 121.385C740.855 122.241 741.426 123.295 741.649 124.549C741.871 125.803 741.877 127.03 741.665 128.23C741.261 130.522 740.399 132.453 739.078 134.023C737.783 135.593 736.163 136.856 734.22 137.811C732.276 138.766 730.119 139.453 727.748 139.874C725.376 140.294 722.925 140.501 720.394 140.495ZM752.571 139.058C749.648 139.051 747.481 138.538 746.067 137.521C744.68 136.504 743.856 135.035 743.594 133.115C743.333 131.194 743.439 128.888 743.914 126.195C744.055 125.396 744.207 124.609 744.369 123.836C744.557 123.064 744.741 122.317 744.92 121.598C745.126 120.878 745.339 120.185 745.561 119.519C745.814 118.827 746.062 118.161 746.305 117.521C746.574 116.882 746.852 116.269 747.138 115.683C747.429 115.071 747.738 114.498 748.067 113.966C749.73 111.196 751.841 109.069 754.401 107.582C756.96 106.095 760.053 105.356 763.68 105.366C767.046 105.374 769.311 106.594 770.475 109.024C771.67 111.427 771.91 114.654 771.196 118.706C771.008 119.772 770.785 120.811 770.528 121.824C770.298 122.837 770.035 123.81 769.74 124.742C769.449 125.648 769.122 126.541 768.759 127.42C768.425 128.272 768.047 129.085 767.624 129.857C767.205 130.602 766.765 131.321 766.304 132.014C765.843 132.706 765.338 133.344 764.791 133.93C763.3 135.579 761.537 136.841 759.503 137.716C757.491 138.618 755.18 139.065 752.571 139.058ZM762.797 102.603C759.013 102.594 756.371 101.96 754.87 100.703C753.369 99.4455 752.764 97.9905 753.055 96.3379C753.436 94.1788 754.517 92.3415 756.298 90.8261C758.084 89.284 760.183 88.1161 762.594 87.3223C765.036 86.5019 767.431 86.0948 769.779 86.1009C771.501 86.1053 773.043 86.3893 774.406 86.9529C775.799 87.4898 776.849 88.3459 777.556 89.5211C778.267 90.6697 778.458 92.1769 778.129 94.0428C777.753 96.1752 776.815 97.8662 775.316 99.1157C773.816 100.365 771.96 101.267 769.748 101.821C767.567 102.349 765.25 102.61 762.797 102.603ZM791.736 143.2C789.44 143.194 787.181 142.975 784.96 142.542C782.734 142.136 780.772 141.425 779.072 140.407C777.367 139.416 776.091 138.066 775.243 136.357C774.422 134.648 774.237 132.514 774.688 129.955C775.097 127.636 776.028 125.692 777.479 124.122C778.935 122.526 780.75 121.264 782.924 120.336C785.102 119.382 787.494 118.695 790.101 118.275C792.733 117.855 795.419 117.648 798.159 117.656C798.733 117.657 799.289 117.685 799.828 117.74C800.371 117.768 800.86 117.809 801.294 117.864C801.759 117.892 802.109 117.906 802.343 117.906C802.865 117.908 803.247 117.815 803.489 117.629C803.735 117.417 803.896 117.097 803.971 116.671C803.999 116.511 803.997 116.377 803.963 116.271C803.961 116.137 803.93 116.017 803.87 115.91C803.815 115.777 803.73 115.67 803.613 115.59C803.321 115.322 802.861 115.121 802.232 114.986C801.634 114.824 800.943 114.743 800.161 114.741C799.065 114.738 797.817 114.855 796.418 115.091C795.024 115.301 793.536 115.524 791.954 115.759C790.398 115.995 788.785 116.111 787.115 116.107C784.036 116.099 781.714 115.573 780.15 114.529C778.611 113.485 778.034 111.87 778.419 109.684C778.772 107.685 779.673 105.981 781.122 104.571C782.598 103.161 784.418 102.019 786.582 101.145C788.772 100.271 791.129 99.6367 793.652 99.2432C796.175 98.8497 798.663 98.6562 801.116 98.6625C806.335 98.6761 810.668 99.194 814.116 100.216C817.595 101.212 820.062 102.992 821.515 105.556C823 108.093 823.331 111.694 822.508 116.359C822.362 117.185 822.209 117.905 822.049 118.518C821.889 119.13 821.727 119.677 821.564 120.156C821.402 120.636 821.259 121.076 821.136 121.475C821.018 121.848 820.924 122.235 820.853 122.635C820.712 123.434 820.843 124.248 821.245 125.076C821.678 125.877 822.178 126.745 822.744 127.68C823.341 128.588 823.817 129.589 824.172 130.683C824.553 131.778 824.622 133.018 824.377 134.404C824.016 136.457 823.108 137.974 821.656 138.957C820.199 139.967 818.596 140.469 816.848 140.465C815.595 140.462 814.643 140.166 813.989 139.577C813.357 139.016 812.845 138.441 812.453 137.853C812.056 137.292 811.583 137.011 811.035 137.01C810.618 137.009 810.096 137.154 809.471 137.446C808.866 137.764 808.172 138.149 807.387 138.6C806.428 139.158 805.219 139.795 803.761 140.511C802.299 141.254 800.568 141.889 798.57 142.418C796.597 142.946 794.319 143.207 791.736 143.2ZM795.395 130.889C795.943 130.89 796.502 130.825 797.074 130.693C797.671 130.561 798.239 130.376 798.777 130.138C799.32 129.872 799.768 129.554 800.12 129.181C800.499 128.809 800.731 128.383 800.816 127.903C800.905 127.396 800.83 127.01 800.59 126.742C800.354 126.448 800.027 126.234 799.607 126.1C799.186 125.965 798.755 125.897 798.311 125.896C797.58 125.894 796.807 125.986 795.992 126.17C795.181 126.328 794.464 126.62 793.84 127.045C793.243 127.47 792.877 128.069 792.74 128.842C792.651 129.348 792.737 129.749 792.999 130.043C793.26 130.337 793.601 130.551 794.021 130.685C794.467 130.82 794.925 130.888 795.395 130.889ZM845.483 139.859C842.013 139.85 839.19 139.349 837.016 138.357C834.841 137.365 833.203 135.92 832.102 134.024C831.001 132.128 830.311 129.819 830.034 127.099C829.911 125.871 829.838 124.511 829.814 123.018C829.821 121.498 829.863 119.924 829.941 118.298C830.045 116.672 830.153 115.098 830.264 113.579C830.406 112.032 830.549 110.633 830.691 109.38C830.86 108.127 831.015 107.1 831.156 106.301C831.856 102.329 832.734 98.9045 833.79 96.0271C834.872 93.1498 836.344 90.9402 838.209 89.3983C840.099 87.8565 842.584 87.0896 845.663 87.0976C849.394 87.1072 851.776 88.1801 852.809 90.3162C853.847 92.4256 853.966 95.7461 853.167 100.277C853.068 100.837 852.926 101.57 852.74 102.476C852.559 103.356 852.344 104.356 852.094 105.475C851.875 106.568 851.632 107.727 851.363 108.953C851.126 110.153 850.875 111.352 850.611 112.551C850.378 113.724 850.155 114.844 849.941 115.91C849.727 116.976 849.547 117.922 849.401 118.748C849.213 119.815 849.118 120.801 849.114 121.708C849.116 122.588 849.214 123.361 849.41 124.029C849.636 124.669 849.951 125.177 850.355 125.551C850.79 125.899 851.333 126.074 851.986 126.075C852.743 126.077 853.553 125.919 854.419 125.602C855.289 125.257 856.182 124.926 857.1 124.609C858.022 124.264 858.927 124.093 859.814 124.096C861.04 124.099 861.936 124.568 862.503 125.503C863.069 126.437 863.213 127.691 862.936 129.264C862.635 130.97 861.845 132.488 860.566 133.818C859.314 135.148 857.799 136.264 856.021 137.166C854.248 138.042 852.422 138.704 850.541 139.152C848.683 139.627 846.996 139.863 845.483 139.859ZM884.043 139.319C881.695 139.313 879.609 139.227 877.784 139.063C875.981 138.925 874.375 138.707 872.965 138.41C871.582 138.113 870.33 137.737 869.21 137.28C867.505 136.583 866.14 135.739 865.114 134.75C864.114 133.76 863.79 132.266 864.142 130.267C864.528 128.081 865.436 126.337 866.866 125.034C868.301 123.704 870.193 123.042 872.542 123.049C873.742 123.052 874.879 123.188 875.954 123.457C877.034 123.7 878.19 123.957 879.421 124.226C880.658 124.47 882.085 124.593 883.702 124.598C884.589 124.6 885.338 124.575 885.947 124.523C886.557 124.472 887.035 124.353 887.381 124.167C887.727 123.981 887.93 123.715 887.991 123.369C888.062 122.969 887.959 122.662 887.684 122.448C887.439 122.207 886.866 121.979 885.964 121.763C885.062 121.548 883.685 121.291 881.832 120.993C878.968 120.505 876.556 119.752 874.595 118.734C872.634 117.715 871.212 116.378 870.329 114.722C869.472 113.067 869.255 111.04 869.678 108.641C870.073 106.402 871.046 104.511 872.597 102.968C874.148 101.425 876.102 100.19 878.459 99.263C880.819 98.3091 883.394 97.6224 886.183 97.2029C889.003 96.7569 891.861 96.5376 894.757 96.5451C896.792 96.5504 898.83 96.689 900.871 96.961C902.916 97.2063 904.763 97.6111 906.413 98.1754C908.088 98.7398 909.379 99.4898 910.284 100.426C911.194 101.335 911.529 102.469 911.289 103.828C910.97 105.641 910.296 107.092 909.269 108.183C908.267 109.274 907.098 110.058 905.761 110.534C904.454 110.984 903.162 111.207 901.883 111.204C900.292 111.2 898.83 111.05 897.499 110.753C896.194 110.456 895.202 110.307 894.524 110.305C894.106 110.304 893.749 110.33 893.453 110.382C893.183 110.435 892.97 110.528 892.816 110.661C892.693 110.767 892.613 110.927 892.575 111.14C892.514 111.487 892.882 111.767 893.68 111.983C894.482 112.172 895.959 112.455 898.111 112.834C900.294 113.187 902.253 113.845 903.989 114.81C905.755 115.748 907.075 117.071 907.948 118.78C908.822 120.489 909.026 122.663 908.56 125.302C908.151 127.621 907.27 129.659 905.916 131.415C904.567 133.145 902.821 134.607 900.679 135.802C898.541 136.97 896.064 137.843 893.247 138.423C890.451 139.029 887.383 139.328 884.043 139.319Z" fill="#FFEAF2"></path>
<defs>
<clipPath id="clip0_459_888">
<rect width="80" height="106.656" fill="white" transform="translate(55.9966 68.1719)"></rect>
</clipPath>
</defs>
</svg>