<svg width="138" height="106" viewBox="0 0 138 106" fill="none" xmlns="http://www.w3.org/2000/svg">
<path d="M56 63.716C53.536 63.716 51.314 63.4447 49.334 62.902C47.3687 62.374 45.6893 61.5673 44.296 60.482C42.9027 59.382 41.832 57.9813 41.084 56.28C40.3507 54.5787 39.984 52.562 39.984 50.23C39.984 49.5847 40.0207 48.9613 40.094 48.36C40.182 47.7587 40.3067 47.1867 40.468 46.644C40.644 46.1013 40.8493 45.5953 41.084 45.126C41.6853 43.9527 42.5213 43.0287 43.592 42.354C44.6773 41.6647 45.9753 41.32 47.486 41.32C48.982 41.32 50.0967 41.54 50.83 41.98C51.578 42.42 52.0767 42.9627 52.326 43.608C52.59 44.2533 52.7367 44.8767 52.766 45.478C52.7953 45.8593 52.8173 46.226 52.832 46.578C52.8613 46.9153 52.8907 47.2453 52.92 47.568C52.9493 47.876 52.9787 48.1767 53.008 48.47C53.052 48.7487 53.096 49.02 53.14 49.284C53.316 50.252 53.536 51.022 53.8 51.594C54.0787 52.166 54.4233 52.584 54.834 52.848C55.2593 53.0973 55.7653 53.222 56.352 53.222C56.7333 53.222 57.1073 53.1267 57.474 52.936C57.8553 52.7453 58.2 52.408 58.508 51.924C58.8307 51.44 59.0947 50.7653 59.3 49.9C59.4027 49.4893 59.476 49.0933 59.52 48.712C59.5787 48.316 59.6227 47.9347 59.652 47.568C59.696 47.1867 59.7547 46.8127 59.828 46.446C59.9013 46.0793 60.004 45.7127 60.136 45.346C60.5173 44.3487 61.148 43.5273 62.028 42.882C62.9227 42.2367 64.1913 41.914 65.834 41.914C67.286 41.914 68.4007 42.2807 69.178 43.014C69.97 43.7327 70.542 44.6933 70.894 45.896C70.9967 46.2627 71.0847 46.6513 71.158 47.062C71.2313 47.4727 71.2827 47.9053 71.312 48.36C71.356 48.8 71.3853 49.2547 71.4 49.724C71.4293 50.1933 71.444 50.67 71.444 51.154C71.444 54.2047 70.7767 56.654 69.442 58.502C68.1073 60.3353 66.274 61.6627 63.942 62.484C61.6247 63.3053 58.9773 63.716 56 63.716ZM83.6334 62.946C82.3134 62.946 81.1327 62.902 80.0914 62.814C79.0647 62.7407 78.1407 62.6233 77.3194 62.462C76.5127 62.3007 75.772 62.0953 75.0974 61.846C74.0707 61.4647 73.22 61.0027 72.5454 60.46C71.8854 59.9173 71.5554 59.096 71.5554 57.996C71.5554 56.7933 71.8927 55.8327 72.5674 55.114C73.242 54.3807 74.2394 54.014 75.5594 54.014C76.234 54.014 76.8867 54.0873 77.5174 54.234C78.148 54.366 78.8227 54.5053 79.5414 54.652C80.26 54.784 81.074 54.85 81.9834 54.85C82.482 54.85 82.9 54.8353 83.2374 54.806C83.5747 54.7767 83.8314 54.7107 84.0074 54.608C84.1834 54.5053 84.2714 54.3587 84.2714 54.168C84.2714 53.948 84.1834 53.7793 84.0074 53.662C83.846 53.53 83.5014 53.4053 82.9734 53.288C82.4454 53.1707 81.646 53.0313 80.5754 52.87C78.918 52.606 77.488 52.1953 76.2854 51.638C75.0827 51.0807 74.1514 50.3473 73.4914 49.438C72.846 48.5287 72.5234 47.414 72.5234 46.094C72.5234 44.862 72.8827 43.8207 73.6014 42.97C74.32 42.1193 75.2954 41.4373 76.5274 40.924C77.7594 40.396 79.138 40.0147 80.6634 39.78C82.2034 39.5307 83.7874 39.406 85.4154 39.406C86.5594 39.406 87.718 39.4793 88.8914 39.626C90.0647 39.758 91.1427 39.978 92.1254 40.286C93.1227 40.594 93.922 41.0047 94.5234 41.518C95.1247 42.0167 95.4254 42.64 95.4254 43.388C95.4254 44.3853 95.1907 45.1847 94.7214 45.786C94.2667 46.3873 93.6874 46.82 92.9834 47.084C92.294 47.3333 91.59 47.458 90.8714 47.458C89.9767 47.458 89.1407 47.3773 88.3634 47.216C87.6007 47.0547 87.0287 46.974 86.6474 46.974C86.4127 46.974 86.2147 46.9887 86.0534 47.018C85.9067 47.0473 85.7967 47.0987 85.7234 47.172C85.6647 47.2307 85.6354 47.3187 85.6354 47.436C85.6354 47.6267 85.87 47.7807 86.3394 47.898C86.8087 48.0007 87.6667 48.1547 88.9134 48.36C90.1747 48.5507 91.3407 48.91 92.4114 49.438C93.4967 49.9513 94.3694 50.6773 95.0294 51.616C95.6894 52.5547 96.0194 53.75 96.0194 55.202C96.0194 56.478 95.726 57.6 95.1394 58.568C94.5527 59.5213 93.7167 60.328 92.6314 60.988C91.546 61.6333 90.2407 62.1173 88.7154 62.44C87.2047 62.7773 85.5107 62.946 83.6334 62.946Z" fill="#F4ED57"></path>
</svg>